<?xml version="1.0" encoding="UTF-8" standalone="no"?>
<!-- Generator: Adobe Illustrator 19.2.1, SVG Export Plug-In . SVG Version: 6.00 Build 0)  -->

<svg
   xmlns:dc="http://purl.org/dc/elements/1.1/"
   xmlns:cc="http://creativecommons.org/ns#"
   xmlns:rdf="http://www.w3.org/1999/02/22-rdf-syntax-ns#"
   xmlns:svg="http://www.w3.org/2000/svg"
   xmlns="http://www.w3.org/2000/svg"
   xmlns:sodipodi="http://sodipodi.sourceforge.net/DTD/sodipodi-0.dtd"
   xmlns:inkscape="http://www.inkscape.org/namespaces/inkscape"
   version="1.1"
   id="Camada_1"
   x="0px"
   y="0px"
   viewBox="0 0 600 599.99998"
   xml:space="preserve"
   inkscape:version="0.91 r13725"
   sodipodi:docname="blaze_logo_simple.svg"
   width="600"
   height="600"><metadata
     id="metadata40"><rdf:RDF><cc:Work
         rdf:about=""><dc:format>image/svg+xml</dc:format><dc:type
           rdf:resource="http://purl.org/dc/dcmitype/StillImage" /><dc:title></dc:title></cc:Work></rdf:RDF></metadata><defs
     id="defs38" /><sodipodi:namedview
     pagecolor="#ffffff"
     bordercolor="#666666"
     borderopacity="1"
     objecttolerance="10"
     gridtolerance="10"
     guidetolerance="10"
     inkscape:pageopacity="0"
     inkscape:pageshadow="2"
     inkscape:window-width="1431"
     inkscape:window-height="782"
     id="namedview36"
     showgrid="false"
     inkscape:zoom="0.72666667"
     inkscape:cx="300"
     inkscape:cy="315.63803"
     inkscape:window-x="0"
     inkscape:window-y="0"
     inkscape:window-maximized="0"
     inkscape:current-layer="Camada_1" /><style
     type="text/css"
     id="style3">
	.st0{fill:url(#SVGID_1_);}
	.st1{fill:#FEDC00;}
	.st2{fill:#373739;}
</style><g
     id="g4183"
     transform="matrix(0.93451335,0,0,0.93451335,-166.36889,14.359392)"><g
       id="g7"><linearGradient
         id="SVGID_1_"
         gradientUnits="userSpaceOnUse"
         x1="533.16681"
         y1="38.590302"
         x2="562.76318"
         y2="750.9765"
         gradientTransform="matrix(0.8877,-0.4604,0.4604,0.8877,-84.6,315.0546)"><stop
           offset="0"
           style="stop-color:#F37425"
           id="stop10" /><stop
           offset="1"
           style="stop-color:#F3BB25"
           id="stop12" /></linearGradient><path
         class="st0"
         d="M 546.5,183.9 C 418.4,135 367.6,65 376.2,14 c 0,0 -159.1,202 76.6,361.1 40.2,26.9 115.3,44.6 134.8,150.2 0,0 219.8,-215.8 -41.1,-341.4 z"
         id="path14"
         style="fill:url(#SVGID_1_)"
         inkscape:connector-curvature="0" /><path
         class="st1"
         d="M 564.8,531.3 C 559.8,510.4 559,459.7 457,410.3 402.5,383.9 332,301 331.3,272.9 c 0,0 -25.4,206.5 141.7,236.8 99.2,18.2 91.8,21.6 91.8,21.6 z"
         id="path16"
         inkscape:connector-curvature="0"
         style="fill:#fedc00" /></g><g
       id="g18"><g
         id="g20"><path
           class="st1"
           d="m 752.7,292.7 c 6.3,34.2 5.7,68.7 -1.8,102.4 -7.2,32.6 -20.5,63.1 -39.5,90.6 -19,27.6 -42.8,50.9 -70.6,69.2 -28.9,19 -60.8,31.8 -95.1,38.1 -34.2,6.3 -68.7,5.7 -102.4,-1.8 -32.6,-7.2 -63.1,-20.5 -90.6,-39.5 -27.6,-19 -50.9,-42.8 -69.2,-70.6 -19,-28.9 -31.8,-60.8 -38.1,-95.1 -6.3,-34.3 -5.7,-68.9 1.8,-102.6 6.1,-27.4 17.1,-54.3 32.8,-80.2 3.5,-5.8 11.2,-7.4 16.8,-3.7 l 0.5,0.3 c 5.4,3.6 6.9,10.8 3.6,16.3 -14.3,23.6 -24.1,47.4 -29.6,72.5 -6.8,30.5 -7.3,61.7 -1.6,92.8 5.7,31 17.3,59.9 34.5,86 16.6,25.2 37.7,46.7 62.6,63.9 25,17.2 52.6,29.2 82,35.8 30.5,6.8 61.7,7.3 92.7,1.6 31,-5.7 59.9,-17.3 86,-34.5 25.2,-16.6 46.7,-37.7 63.9,-62.6 17.2,-25 29.2,-52.6 35.8,-82 6.8,-30.5 7.3,-61.7 1.6,-92.7 -5.7,-31 -17.3,-59.9 -34.5,-86 -16.6,-25.2 -37.7,-46.7 -62.6,-63.9 -25,-17.2 -52.6,-29.3 -82,-35.8 -26.8,-5.9 -54.5,-7 -81.3,-3.5 -6.4,0.8 -12.3,-3.4 -13.5,-9.7 l -0.1,-0.6 c -1.2,-6.8 3.5,-13.1 10.3,-14.1 30.4,-4.1 60.2,-2.8 90,3.9 32.5,7.2 63,20.5 90.6,39.6 27.6,19 50.9,42.8 69.2,70.7 18.6,29 31.5,61 37.8,95.2 z"
           id="path22"
           inkscape:connector-curvature="0"
           style="fill:#fedc00" /></g></g></g></svg>