<?xml version="1.0" encoding="UTF-8" standalone="no"?>
<!-- Generator: Adobe Illustrator 16.0.0, SVG Export Plug-In . SVG Version: 6.00 Build 0)  -->

<svg
   xmlns:dc="http://purl.org/dc/elements/1.1/"
   xmlns:cc="http://creativecommons.org/ns#"
   xmlns:rdf="http://www.w3.org/1999/02/22-rdf-syntax-ns#"
   xmlns:svg="http://www.w3.org/2000/svg"
   xmlns="http://www.w3.org/2000/svg"
   xmlns:sodipodi="http://sodipodi.sourceforge.net/DTD/sodipodi-0.dtd"
   xmlns:inkscape="http://www.inkscape.org/namespaces/inkscape"
   version="1.1"
   id="Layer_1"
   x="0px"
   y="0px"
   width="165px"
   height="60px"
   viewBox="0 0 165 60"
   enable-background="new 0 0 165 60"
   xml:space="preserve"
   inkscape:version="0.91 r13725"
   sodipodi:docname="ia-logo-color.svg"><metadata
     id="metadata15"><rdf:RDF><cc:Work
         rdf:about=""><dc:format>image/svg+xml</dc:format><dc:type
           rdf:resource="http://purl.org/dc/dcmitype/StillImage" /><dc:title></dc:title></cc:Work></rdf:RDF></metadata><defs
     id="defs13" /><sodipodi:namedview
     pagecolor="#ffffff"
     bordercolor="#666666"
     borderopacity="1"
     objecttolerance="10"
     gridtolerance="10"
     guidetolerance="10"
     inkscape:pageopacity="0"
     inkscape:pageshadow="2"
     inkscape:window-width="1442"
     inkscape:window-height="688"
     id="namedview11"
     showgrid="false"
     inkscape:zoom="1.8787879"
     inkscape:cx="4.7903226"
     inkscape:cy="30"
     inkscape:window-x="0"
     inkscape:window-y="0"
     inkscape:window-maximized="0"
     inkscape:current-layer="Layer_1" /><path
     style="fill:#cccccc;fill-opacity:1"
     inkscape:connector-curvature="0"
     id="path5"
     d="m 120.318,43.256 c -0.025,-1.127 -0.426,-2.09 -1.201,-2.891 -0.776,-0.801 -1.708,-1.201 -2.797,-1.201 -1.139,0 -2.108,0.4 -2.908,1.201 -0.801,0.801 -1.208,1.77 -1.221,2.908 -0.024,1.127 0.348,2.111 1.117,2.957 0.77,0.844 1.698,1.291 2.787,1.342 1.176,0.049 2.18,-0.359 3.012,-1.23 0.832,-0.869 1.237,-1.899 1.211,-3.086 m 1.426,0.111 0,0.076 0,5.291 -1.426,0 0,-1.67 c -1.161,1.326 -2.581,1.965 -4.264,1.914 -1.47,-0.049 -2.721,-0.619 -3.757,-1.707 -1.035,-1.088 -1.551,-2.383 -1.551,-3.885 0,-1.564 0.557,-2.906 1.67,-4.025 1.113,-1.121 2.446,-1.648 3.997,-1.586 1.502,0.049 2.778,0.621 3.829,1.717 1.052,1.094 1.553,2.387 1.502,3.875 z m -12.348,5.367 -1.427,0 0,-6.23 c 0,-0.9 -0.335,-1.68 -1.001,-2.336 -0.666,-0.656 -1.444,-0.973 -2.34,-0.947 -0.906,0.012 -1.67,0.314 -2.292,0.91 -0.623,0.594 -0.936,1.348 -0.936,2.26 l 0,6.344 -1.445,0 0,-14.469 1.445,0 0,5.293 c 0.813,-1.064 1.858,-1.627 3.134,-1.689 1.327,-0.063 2.468,0.375 3.426,1.313 0.957,0.939 1.436,2.096 1.436,3.473 l 0,6.078 z M 97.159,43.48 c 0.012,-1.127 -0.366,-2.111 -1.133,-2.955 -0.767,-0.846 -1.701,-1.287 -2.809,-1.324 -1.183,-0.063 -2.189,0.344 -3.025,1.221 -0.835,0.875 -1.241,1.9 -1.217,3.078 0.025,1.125 0.429,2.088 1.208,2.889 0.778,0.801 1.72,1.201 2.827,1.201 1.133,0 2.1,-0.4 2.903,-1.201 0.803,-0.801 1.221,-1.77 1.246,-2.909 z m 1.426,-0.113 c 0,1.564 -0.557,2.906 -1.67,4.025 -1.114,1.121 -2.44,1.656 -3.979,1.605 -1.577,-0.063 -2.897,-0.695 -3.961,-1.896 l 0,5.387 -1.389,0 0,-9.027 c 0,0 0,-0.01 0,-0.027 0,-0.02 0,-0.035 0,-0.047 0,-1.539 0.56,-2.869 1.68,-3.988 1.12,-1.119 2.449,-1.654 3.988,-1.605 1.489,0.039 2.75,0.602 3.782,1.689 1.032,1.087 1.549,2.384 1.549,3.884 z m -12.631,5.367 -1.426,0 0,-14.468 1.426,0 0,14.468 z M 81.6,43.256 c -0.025,-1.127 -0.425,-2.09 -1.201,-2.891 -0.776,-0.801 -1.708,-1.201 -2.796,-1.201 -1.139,0 -2.108,0.4 -2.909,1.201 -0.801,0.801 -1.208,1.77 -1.22,2.908 -0.025,1.127 0.347,2.111 1.117,2.957 0.77,0.844 1.698,1.291 2.787,1.342 1.176,0.049 2.18,-0.359 3.012,-1.23 0.832,-0.869 1.235,-1.899 1.21,-3.086 z m 1.426,0.111 0,0.076 0,5.291 -1.426,0 0,-1.67 c -1.161,1.326 -2.581,1.965 -4.263,1.914 -1.47,-0.049 -2.722,-0.619 -3.757,-1.707 -1.035,-1.088 -1.552,-2.383 -1.552,-3.885 0,-1.564 0.557,-2.906 1.67,-4.025 1.114,-1.121 2.446,-1.648 3.998,-1.586 1.501,0.049 2.778,0.621 3.829,1.717 1.051,1.094 1.551,2.387 1.501,3.875 z m 77.756,-16.751 -1.445,0 0,-6.25 c 0,-0.901 -0.329,-1.677 -0.985,-2.327 -0.657,-0.651 -1.424,-0.976 -2.299,-0.976 -0.889,0 -1.661,0.324 -2.318,0.976 -0.657,0.65 -0.985,1.426 -0.985,2.327 l 0,6.25 -1.444,0 0,-6.1 c 0,-1.389 0.45,-2.543 1.351,-3.463 0.901,-0.92 2.033,-1.38 3.397,-1.38 1.352,0 2.477,0.46 3.378,1.38 0.9,0.92 1.352,2.074 1.352,3.463 l 0,6.1 z M 148.47,21.154 c -0.037,-1.126 -0.44,-2.09 -1.21,-2.891 -0.77,-0.801 -1.699,-1.2 -2.787,-1.2 -1.139,-0.013 -2.108,0.384 -2.909,1.191 -0.801,0.807 -1.208,1.779 -1.22,2.918 -0.025,1.126 0.344,2.111 1.107,2.956 0.763,0.845 1.695,1.286 2.796,1.323 1.177,0.063 2.181,-0.344 3.013,-1.22 0.832,-0.876 1.235,-1.901 1.21,-3.077 z m 1.426,0.113 c 0,1.539 -0.56,2.868 -1.68,3.988 -1.12,1.12 -2.449,1.655 -3.988,1.604 -1.489,-0.037 -2.749,-0.601 -3.782,-1.688 -1.032,-1.089 -1.548,-2.384 -1.548,-3.885 0,-1.564 0.557,-2.906 1.67,-4.026 1.114,-1.12 2.44,-1.654 3.979,-1.604 1.488,0.05 2.752,0.622 3.791,1.718 1.039,1.094 1.558,2.392 1.558,3.893 z m -12.574,5.349 -1.408,0 0,-10.698 1.408,0 0,10.698 z m 0,-11.974 -1.408,0 0,-2.496 1.408,0 0,2.496 z m -2.665,12.199 c -2.603,0 -3.904,-1.107 -3.904,-3.321 l 0,-11.356 1.445,0 0,3.735 2.459,0 0,1.333 -2.459,0 0,6.043 c 0,1.589 0.819,2.383 2.459,2.383 l 0,1.183 z m -6.832,-5.705 c -0.024,-1.126 -0.425,-2.09 -1.201,-2.891 -0.775,-0.801 -1.707,-1.201 -2.796,-1.201 -1.139,0 -2.108,0.4 -2.909,1.201 -0.801,0.801 -1.207,1.771 -1.22,2.909 -0.025,1.126 0.347,2.111 1.116,2.956 0.769,0.845 1.698,1.292 2.787,1.342 1.176,0.05 2.181,-0.359 3.013,-1.229 0.832,-0.869 1.236,-1.899 1.21,-3.087 z m 1.427,0.112 0,0.075 0,5.293 -1.427,0 0,-1.671 c -1.16,1.326 -2.58,1.965 -4.263,1.914 -1.471,-0.05 -2.722,-0.619 -3.757,-1.707 -1.035,-1.089 -1.552,-2.384 -1.552,-3.886 0,-1.563 0.557,-2.905 1.67,-4.025 1.114,-1.12 2.446,-1.648 3.998,-1.586 1.502,0.05 2.777,0.622 3.829,1.718 1.052,1.095 1.552,2.387 1.502,3.875 z m -10.623,-4.11 c -0.663,0.025 -1.201,0.207 -1.613,0.545 -0.413,0.337 -0.695,0.632 -0.845,0.882 -0.238,0.413 -0.356,0.963 -0.356,1.651 l 0,6.4 -1.502,0 0,-10.698 1.333,0 0,1.521 c 0.3,-0.576 0.744,-1.021 1.332,-1.333 0.538,-0.287 1.089,-0.419 1.651,-0.394 l 0,1.426 z m -7.112,4.148 c 0.037,-1.177 -0.363,-2.202 -1.198,-3.078 -0.835,-0.876 -1.843,-1.289 -3.024,-1.239 -1.107,0.051 -2.043,0.498 -2.81,1.343 -0.767,0.844 -1.145,1.829 -1.132,2.955 0.024,1.139 0.44,2.108 1.245,2.909 0.804,0.801 1.77,1.201 2.902,1.201 1.107,0 2.046,-0.4 2.818,-1.201 0.772,-0.801 1.173,-1.764 1.199,-2.89 z m 1.407,-0.113 0,4.937 c 0,1.351 -0.554,2.471 -1.661,3.359 -1.107,0.888 -2.374,1.308 -3.8,1.257 -1.276,-0.051 -2.378,-0.438 -3.304,-1.163 -0.876,-0.701 -1.464,-1.596 -1.765,-2.684 l 1.39,0 c 0.212,0.738 0.688,1.373 1.426,1.904 0.738,0.532 1.546,0.798 2.422,0.798 1.051,-0.013 1.961,-0.378 2.73,-1.098 0.769,-0.72 1.154,-1.58 1.154,-2.581 l 0,-1.012 c -1.052,1.2 -2.365,1.832 -3.941,1.896 -1.539,0.05 -2.865,-0.485 -3.979,-1.605 -1.114,-1.119 -1.671,-2.461 -1.671,-4.025 0,-1.502 0.517,-2.797 1.549,-3.885 1.032,-1.089 2.292,-1.658 3.781,-1.708 1.539,-0.037 2.875,0.504 4.007,1.623 1.134,1.119 1.687,2.448 1.662,3.987 z M 99.242,20.441 c -0.2,-1.001 -0.67,-1.812 -1.408,-2.431 -0.738,-0.619 -1.62,-0.936 -2.646,-0.947 -1.026,-0.013 -1.924,0.294 -2.693,0.919 -0.77,0.626 -1.255,1.445 -1.455,2.459 l 8.202,0 z m 1.407,1.314 -9.609,0 c 0.113,1.076 0.569,1.965 1.37,2.665 0.801,0.7 1.746,1.045 2.834,1.032 1.689,-0.025 2.896,-0.807 3.622,-2.346 l 1.521,0 c -0.4,1.15 -1.076,2.064 -2.027,2.74 -0.95,0.675 -2.008,1.02 -3.171,1.032 -1.465,0.024 -2.76,-0.511 -3.886,-1.605 -1.126,-1.094 -1.701,-2.398 -1.727,-3.912 -0.037,-1.602 0.529,-2.981 1.699,-4.139 1.169,-1.157 2.549,-1.692 4.138,-1.604 1.427,0.087 2.665,0.675 3.716,1.764 1.014,1.076 1.521,2.277 1.521,3.604 l 0,0.769 z m -10.772,5.086 c -2.603,0 -3.904,-1.107 -3.904,-3.321 l 0,-11.356 1.445,0 0,3.735 2.459,0 0,1.333 -2.459,0 0,6.043 c 0,1.589 0.819,2.383 2.459,2.383 l 0,1.183 z m -5.405,-0.225 -1.445,0 0,-6.25 c 0,-0.901 -0.328,-1.677 -0.985,-2.327 -0.657,-0.651 -1.423,-0.976 -2.299,-0.976 -0.888,0 -1.661,0.324 -2.317,0.976 -0.657,0.65 -0.985,1.426 -0.985,2.327 l 0,6.25 -1.445,0 0,-6.1 c 0,-1.389 0.451,-2.543 1.352,-3.463 0.901,-0.92 2.033,-1.38 3.396,-1.38 1.352,0 2.478,0.46 3.378,1.38 0.901,0.92 1.352,2.074 1.352,3.463 l 0,6.1 z m -11.017,0 -1.408,0 0,-10.698 1.408,0 0,10.698 z m 0,-11.974 -1.408,0 0,-2.496 1.408,0 0,2.496 z" /><path
     style="fill:#cccccc"
     inkscape:connector-curvature="0"
     id="path7"
     d="m 46.709,49.826 c -1.177,0.984 -2.93,0.83 -3.915,-0.348 -0.985,-1.178 -0.829,-2.93 0.348,-3.914 2.307,-1.934 4.125,-4.322 5.362,-6.975 1.233,-2.643 1.895,-5.57 1.895,-8.591 0,-5.605 -2.273,-10.683 -5.948,-14.357 -3.675,-3.676 -8.752,-5.948 -14.358,-5.948 -5.607,0 -10.684,2.272 -14.358,5.948 -3.675,3.675 -5.949,8.752 -5.949,14.357 0,5.608 2.273,10.685 5.949,14.36 3.056,3.055 7.081,5.143 11.575,5.758 l 0,-5.715 c 0,-1.537 1.246,-2.783 2.784,-2.783 1.537,0 2.784,1.246 2.784,2.783 l 0,8.688 c 0,1.539 -1.247,2.785 -2.784,2.785 -7.144,0 -13.612,-2.896 -18.295,-7.58 -4.683,-4.682 -7.58,-11.15 -7.58,-18.296 0,-7.143 2.897,-13.611 7.58,-18.294 4.683,-4.683 11.151,-7.58 18.295,-7.58 7.144,0 13.612,2.897 18.295,7.58 4.682,4.683 7.58,11.151 7.58,18.294 0,3.81 -0.852,7.538 -2.439,10.94 -1.585,3.394 -3.896,6.439 -6.821,8.888" /><path
     style="clip-rule:evenodd;fill:#1c75ba;fill-rule:evenodd"
     inkscape:connector-curvature="0"
     id="path9"
     d="m 30.092,23.645 c 3.509,0 6.355,2.846 6.355,6.354 0,3.511 -2.846,6.356 -6.355,6.356 -3.509,0 -6.355,-2.846 -6.355,-6.356 0,-3.509 2.846,-6.354 6.355,-6.354" /></svg>