<?xml version="1.0" encoding="UTF-8" standalone="no"?>
<!-- Generator: Adobe Illustrator 16.0.0, SVG Export Plug-In . SVG Version: 6.00 Build 0)  -->

<svg
   xmlns:dc="http://purl.org/dc/elements/1.1/"
   xmlns:cc="http://creativecommons.org/ns#"
   xmlns:rdf="http://www.w3.org/1999/02/22-rdf-syntax-ns#"
   xmlns:svg="http://www.w3.org/2000/svg"
   xmlns="http://www.w3.org/2000/svg"
   xmlns:sodipodi="http://sodipodi.sourceforge.net/DTD/sodipodi-0.dtd"
   xmlns:inkscape="http://www.inkscape.org/namespaces/inkscape"
   version="1.1"
   id="Layer_1"
   x="0px"
   y="0px"
   width="52.75"
   height="52.75"
   viewBox="0 0 52.75 52.75"
   enable-background="new 0 0 165 60"
   xml:space="preserve"
   inkscape:version="0.91 r13725"
   sodipodi:docname="ia-logo-simple-color.svg"><metadata
     id="metadata15"><rdf:RDF><cc:Work
         rdf:about=""><dc:format>image/svg+xml</dc:format><dc:type
           rdf:resource="http://purl.org/dc/dcmitype/StillImage" /><dc:title></dc:title></cc:Work></rdf:RDF></metadata><defs
     id="defs13" /><sodipodi:namedview
     pagecolor="#ffffff"
     bordercolor="#666666"
     borderopacity="1"
     objecttolerance="10"
     gridtolerance="10"
     guidetolerance="10"
     inkscape:pageopacity="0"
     inkscape:pageshadow="2"
     inkscape:window-width="1190"
     inkscape:window-height="672"
     id="namedview11"
     showgrid="false"
     fit-margin-top="0.5"
     fit-margin-left="0.5"
     fit-margin-right="0.5"
     fit-margin-bottom="0.5"
     inkscape:zoom="1.8787879"
     inkscape:cx="12.248742"
     inkscape:cy="26.373999"
     inkscape:window-x="0"
     inkscape:window-y="0"
     inkscape:window-maximized="0"
     inkscape:current-layer="Layer_1" /><path
     style="fill:#cccccc"
     inkscape:connector-curvature="0"
     id="path7"
     d="m 42.99,46.202 c -1.177,0.984 -2.93,0.83 -3.915,-0.348 -0.985,-1.178 -0.829,-2.93 0.348,-3.914 2.307,-1.934 4.125,-4.322 5.362,-6.975 1.233,-2.643 1.895,-5.57 1.895,-8.591 0,-5.605 -2.273,-10.683 -5.948,-14.357 C 37.057,8.341 31.98,6.069 26.374,6.069 c -5.607,0 -10.684,2.272 -14.358,5.948 -3.675,3.675 -5.949,8.752 -5.949,14.357 0,5.608 2.273,10.685 5.949,14.36 3.056,3.055 7.081,5.143 11.575,5.758 l 0,-5.715 c 0,-1.537 1.246,-2.783 2.784,-2.783 1.537,0 2.784,1.246 2.784,2.783 l 0,8.688 c 0,1.539 -1.247,2.785 -2.784,2.785 C 19.231,52.25 12.763,49.354 8.08,44.67 3.397,39.988 0.5,33.52 0.5,26.374 0.5,19.231 3.397,12.763 8.08,8.08 12.763,3.397 19.231,0.5 26.375,0.5 c 7.144,0 13.612,2.897 18.295,7.58 4.682,4.683 7.58,11.151 7.58,18.294 0,3.81 -0.852,7.538 -2.439,10.94 -1.585,3.394 -3.896,6.439 -6.821,8.888" /><path
     style="clip-rule:evenodd;fill:#1c75ba;fill-rule:evenodd"
     inkscape:connector-curvature="0"
     id="path9"
     d="m 26.373,20.021 c 3.509,0 6.355,2.846 6.355,6.354 0,3.511 -2.846,6.356 -6.355,6.356 -3.509,0 -6.355,-2.846 -6.355,-6.356 0,-3.509 2.846,-6.354 6.355,-6.354" /></svg>