<?xml version="1.0" encoding="UTF-8" standalone="no"?>
<!-- Generator: Adobe Illustrator 16.0.0, SVG Export Plug-In . SVG Version: 6.00 Build 0)  -->

<svg
   xmlns:dc="http://purl.org/dc/elements/1.1/"
   xmlns:cc="http://creativecommons.org/ns#"
   xmlns:rdf="http://www.w3.org/1999/02/22-rdf-syntax-ns#"
   xmlns:svg="http://www.w3.org/2000/svg"
   xmlns="http://www.w3.org/2000/svg"
   xmlns:sodipodi="http://sodipodi.sourceforge.net/DTD/sodipodi-0.dtd"
   xmlns:inkscape="http://www.inkscape.org/namespaces/inkscape"
   version="1.1"
   id="Layer_1"
   x="0px"
   y="0px"
   width="250.673"
   height="32.351177"
   viewBox="0 0 250.67301 32.351178"
   enable-background="new 0 0 283.465 283.465"
   xml:space="preserve"
   inkscape:version="0.91 r13725"
   sodipodi:docname="kitchen-logo-3.svg"><metadata
     id="metadata11"><rdf:RDF><cc:Work
         rdf:about=""><dc:format>image/svg+xml</dc:format><dc:type
           rdf:resource="http://purl.org/dc/dcmitype/StillImage" /><dc:title></dc:title></cc:Work></rdf:RDF></metadata><defs
     id="defs9" /><sodipodi:namedview
     pagecolor="#ffffff"
     bordercolor="#666666"
     borderopacity="1"
     objecttolerance="10"
     gridtolerance="10"
     guidetolerance="10"
     inkscape:pageopacity="0"
     inkscape:pageshadow="2"
     inkscape:window-width="664"
     inkscape:window-height="480"
     id="namedview7"
     showgrid="false"
     fit-margin-top="0"
     fit-margin-left="0"
     fit-margin-right="0"
     fit-margin-bottom="0"
     inkscape:zoom="0.83255429"
     inkscape:cx="128.9145"
     inkscape:cy="16.17568"
     inkscape:window-x="0"
     inkscape:window-y="0"
     inkscape:window-maximized="0"
     inkscape:current-layer="Layer_1" /><path
     d="m 146.796,1.418 c -0.457,2.329 -0.94,4.595 -1.474,6.797 -0.526,2.195 -1.087,4.307 -1.677,6.334 0.274,-0.105 0.54,-0.189 0.786,-0.245 0.245,-0.057 0.491,-0.077 0.736,-0.077 0.042,0 0.112,0.007 0.211,0.014 0.091,0.014 0.161,0.021 0.203,0.021 1.915,-2.188 3.619,-4.229 5.106,-6.108 1.487,-1.887 2.567,-3.367 3.24,-4.454 0.204,-0.351 0.463,-0.821 0.779,-1.396 0.82,-1.536 2.006,-2.301 3.556,-2.301 0.989,0 1.768,0.105 2.35,0.316 0.582,0.217 0.877,0.498 0.877,0.855 0,0.891 -1.192,2.645 -3.577,5.261 -2.385,2.616 -5.408,5.394 -9.084,8.325 1.291,0.33 2.238,0.808 2.855,1.445 0.617,0.639 0.926,1.466 0.926,2.477 0,0.849 -0.351,2.308 -1.045,4.377 -0.702,2.068 -1.053,3.5 -1.053,4.293 0,0.743 0.231,1.276 0.688,1.592 0.463,0.322 1.263,0.512 2.42,0.568 l -0.807,2.756 -0.245,0 c -2.519,0 -4.377,-0.344 -5.569,-1.037 -1.193,-0.695 -1.789,-1.762 -1.789,-3.22 0,-1.053 0.379,-2.659 1.137,-4.826 0.75,-2.168 1.129,-3.599 1.129,-4.293 0,-0.315 -0.133,-0.596 -0.399,-0.835 -0.267,-0.238 -0.66,-0.421 -1.165,-0.547 -0.483,0.786 -1.087,1.41 -1.81,1.88 -0.729,0.478 -1.522,0.758 -2.385,0.855 -1.585,4.194 -3.423,7.26 -5.506,9.196 -2.084,1.942 -4.553,2.91 -7.414,2.91 -1.88,0 -3.417,-0.477 -4.623,-1.438 -1.207,-0.961 -1.81,-2.174 -1.81,-3.641 0,-0.688 0.175,-1.248 0.533,-1.697 0.358,-0.441 0.814,-0.666 1.361,-0.666 l 0.119,0 c 0.246,1.045 0.75,1.831 1.508,2.371 0.765,0.533 1.761,0.799 2.988,0.799 2.511,0 4.734,-1.852 6.671,-5.548 1.936,-3.704 3.836,-9.75 5.702,-18.153 -0.744,-0.147 -1.403,-0.259 -1.985,-0.322 -0.582,-0.07 -1.115,-0.105 -1.592,-0.105 -1.6,0 -2.722,0.218 -3.346,0.659 -0.632,0.435 -1.011,1.241 -1.13,2.42 -0.07,0.015 -0.146,0.028 -0.218,0.035 -0.077,0.007 -0.182,0.007 -0.322,0.007 -0.652,0 -1.192,-0.196 -1.599,-0.596 -0.414,-0.4 -0.617,-0.919 -0.617,-1.564 0,-1.522 0.722,-2.714 2.167,-3.591 1.445,-0.877 3.444,-1.319 5.99,-1.319 1.305,0 2.623,0.119 3.963,0.351 1.35,0.23 2.76,0.588 4.24,1.065 m 4.91,30.848 0.778,-2.777 c 1.62,-0.056 3.002,-0.947 4.146,-2.68 1.143,-1.732 2.224,-4.587 3.233,-8.558 0.154,-0.631 0.33,-1.431 0.533,-2.405 0.413,-2.069 1.761,-3.101 4.055,-3.101 0.533,0 0.939,0.077 1.22,0.239 0.28,0.153 0.421,0.385 0.421,0.687 0,0.407 -0.238,1.214 -0.708,2.398 -0.47,1.193 -0.807,2.119 -1.018,2.778 l -1.971,5.955 -0.077,0.246 c -0.498,1.438 -0.743,2.37 -0.743,2.798 0,0.576 0.188,0.976 0.575,1.2 0.385,0.225 1.171,0.372 2.363,0.441 l -0.778,2.777 -0.723,0 c -1.768,0 -3.093,-0.23 -3.977,-0.687 -0.885,-0.464 -1.41,-1.2 -1.571,-2.217 -0.813,0.933 -1.684,1.642 -2.623,2.111 -0.939,0.48 -1.984,0.74 -3.135,0.795 z M 165.58,6.475 c -0.793,0 -1.402,-0.218 -1.838,-0.646 -0.428,-0.435 -0.646,-1.045 -0.646,-1.845 0,-1.023 0.316,-1.894 0.954,-2.595 0.639,-0.709 1.403,-1.06 2.293,-1.06 0.724,0 1.326,0.238 1.804,0.723 0.483,0.477 0.723,1.094 0.723,1.844 0,1.018 -0.316,1.866 -0.947,2.554 -0.631,0.681 -1.41,1.025 -2.343,1.025 z m -2.945,25.791 0.778,-2.777 c 1.536,-0.147 2.729,-0.666 3.584,-1.55 0.856,-0.884 1.613,-2.497 2.272,-4.841 l 1.727,-6.102 -2,0 c -0.302,0 -0.505,-0.035 -0.617,-0.112 -0.104,-0.077 -0.161,-0.211 -0.161,-0.399 0,-0.029 0,-0.063 0.007,-0.105 0.007,-0.042 0.035,-0.119 0.077,-0.246 l 0.33,-0.981 c 0.077,-0.26 0.218,-0.442 0.421,-0.54 0.196,-0.092 0.589,-0.141 1.178,-0.141 l 1.522,0 2.013,-6.656 c 0.113,-0.358 0.246,-0.849 0.394,-1.48 0.428,-1.781 1.276,-2.672 2.554,-2.672 0.904,0 1.605,0.111 2.117,0.336 0.506,0.231 0.758,0.548 0.758,0.961 0,0.273 -0.154,0.8 -0.47,1.579 -0.168,0.413 -0.288,0.742 -0.372,0.988 l -2.363,6.944 3.451,0 c 0.26,0 0.456,0.035 0.596,0.112 0.133,0.077 0.203,0.196 0.203,0.357 0,0.07 0,0.134 -0.007,0.189 -0.007,0.05 -0.021,0.105 -0.035,0.161 l -0.351,0.989 c -0.077,0.26 -0.231,0.442 -0.448,0.554 -0.218,0.105 -0.604,0.162 -1.151,0.162 l -3.022,0 -2.014,6.636 c -0.23,0.743 -0.406,1.381 -0.512,1.922 -0.112,0.54 -0.168,0.981 -0.168,1.325 0,0.778 0.371,1.39 1.115,1.831 0.736,0.435 1.837,0.694 3.303,0.778 l -0.799,2.777 -0.491,0 c -1.823,0 -3.353,-0.217 -4.587,-0.645 -1.235,-0.436 -2.126,-1.06 -2.673,-1.887 -0.877,0.757 -1.845,1.354 -2.903,1.788 -1.061,0.443 -2.147,0.69 -3.256,0.745 z m 12.816,0 0.827,-2.777 c 0.835,-0.042 1.613,-0.161 2.343,-0.371 0.723,-0.204 1.41,-0.498 2.056,-0.884 -0.33,-0.576 -0.575,-1.207 -0.729,-1.901 -0.161,-0.688 -0.238,-1.501 -0.238,-2.434 0,-2.981 1.059,-5.598 3.185,-7.836 2.125,-2.237 4.552,-3.359 7.295,-3.359 1.396,0 2.511,0.323 3.339,0.975 0.827,0.652 1.241,1.502 1.241,2.561 0,0.709 -0.211,1.305 -0.625,1.774 -0.421,0.47 -0.926,0.709 -1.515,0.709 -0.218,0 -0.372,-0.028 -0.463,-0.092 -0.084,-0.063 -0.134,-0.217 -0.134,-0.463 0,-0.631 -0.14,-1.094 -0.428,-1.396 -0.287,-0.302 -0.75,-0.449 -1.374,-0.449 -1.389,0 -2.631,0.744 -3.732,2.238 -1.101,1.493 -1.655,3.219 -1.655,5.176 0,1.957 0.61,3.396 1.838,4.314 1.228,0.918 3.178,1.396 5.851,1.438 l -0.786,2.777 c -0.218,0 -0.448,0.028 -0.694,0.084 -0.056,0 -0.091,0 -0.105,0 -1.858,0 -3.507,-0.188 -4.931,-0.575 -1.424,-0.386 -2.588,-0.946 -3.493,-1.689 -0.933,0.687 -1.985,1.213 -3.164,1.571 -1.181,0.364 -2.479,0.567 -3.909,0.609 z m 20.011,-2.012 c -0.603,0.617 -1.305,1.088 -2.104,1.424 -0.799,0.337 -1.711,0.533 -2.729,0.589 l 0.807,-2.777 c 1.383,-0.084 2.54,-0.68 3.466,-1.789 0.919,-1.107 1.823,-3.029 2.7,-5.772 l 4.293,-13.397 c 0.315,-0.961 0.659,-2.153 1.031,-3.577 0.638,-2.462 1.76,-3.696 3.346,-3.696 1.102,0 1.845,0.069 2.23,0.217 0.393,0.141 0.589,0.394 0.589,0.751 0,0.379 -0.267,1.228 -0.807,2.525 -0.218,0.519 -0.379,0.926 -0.491,1.213 l -6.698,16.976 c 2.139,-3.465 4.096,-5.998 5.864,-7.597 1.774,-1.593 3.514,-2.393 5.211,-2.393 0.863,0 1.536,0.232 2.014,0.688 0.483,0.463 0.722,1.102 0.722,1.923 0,0.918 -0.799,3.373 -2.405,7.379 l -0.498,1.248 c -0.337,0.82 -0.61,1.593 -0.807,2.301 -0.204,0.716 -0.302,1.221 -0.302,1.522 0,0.505 0.189,0.862 0.575,1.065 0.386,0.211 1.144,0.345 2.286,0.414 l -0.785,2.777 -0.47,0 c -2.252,0 -3.894,-0.302 -4.945,-0.904 -1.045,-0.604 -1.571,-1.55 -1.571,-2.834 0,-0.589 0.196,-1.494 0.597,-2.715 0.399,-1.22 1.003,-2.777 1.81,-4.664 l 0.161,-0.393 c 0.701,-1.571 1.052,-2.505 1.052,-2.792 0,-0.238 -0.056,-0.406 -0.175,-0.519 -0.119,-0.105 -0.295,-0.162 -0.547,-0.162 -0.807,0 -2.056,1.024 -3.746,3.08 -1.697,2.055 -3.177,4.552 -4.454,7.483 -0.26,0.59 -0.54,1.305 -0.842,2.161 -0.575,1.564 -1.697,2.342 -3.367,2.342 -0.547,0 -0.933,-0.049 -1.149,-0.153 -0.218,-0.105 -0.33,-0.288 -0.33,-0.547 0,-0.134 0.035,-0.316 0.112,-0.548 0.076,-0.225 0.195,-0.513 0.356,-0.849 z m 26.55,-4.384 c 1.424,-0.926 2.623,-2.182 3.599,-3.767 0.975,-1.586 1.459,-2.96 1.459,-4.139 0,-0.589 -0.147,-1.038 -0.436,-1.347 -0.287,-0.309 -0.701,-0.463 -1.248,-0.463 -1.144,0 -2.146,0.666 -3.023,2.006 -0.877,1.333 -1.318,2.884 -1.318,4.65 0,0.674 0.077,1.248 0.225,1.74 0.152,0.485 0.398,0.927 0.742,1.32 z m -2.118,4.342 c -1.326,0.631 -2.659,1.115 -3.998,1.459 -1.333,0.344 -2.68,0.54 -4.04,0.596 l 0.827,-2.777 c 0.939,-0.069 1.817,-0.196 2.616,-0.393 0.8,-0.189 1.578,-0.449 2.336,-0.778 -0.52,-0.688 -0.905,-1.467 -1.15,-2.344 -0.245,-0.876 -0.372,-1.9 -0.372,-3.078 0,-2.743 0.934,-5.128 2.806,-7.155 1.873,-2.027 4.075,-3.037 6.629,-3.037 1.424,0 2.553,0.428 3.381,1.284 0.827,0.855 1.241,2.026 1.241,3.5 0,1.62 -0.589,3.401 -1.774,5.352 -1.186,1.957 -2.764,3.676 -4.741,5.17 0.575,0.532 1.206,0.911 1.88,1.143 0.681,0.225 1.515,0.337 2.497,0.337 l 0.287,0 -0.8,2.777 -0.554,0 c -1.536,0 -2.883,-0.168 -4.048,-0.505 -1.165,-0.338 -2.174,-0.857 -3.023,-1.551 z m 11.335,0.042 c -0.603,0.617 -1.305,1.088 -2.104,1.424 -0.801,0.337 -1.712,0.533 -2.729,0.589 l 0.786,-2.777 c 1.438,-0.056 2.658,-0.729 3.654,-2.02 1.003,-1.298 1.915,-3.381 2.735,-6.257 0.4,-1.389 0.807,-3.03 1.234,-4.932 0.548,-2.546 1.417,-3.822 2.609,-3.822 1.08,0 1.853,0.063 2.301,0.183 0.449,0.126 0.681,0.344 0.681,0.658 0,0.232 -0.428,1.403 -1.276,3.515 -0.848,2.112 -1.6,4.146 -2.259,6.124 2.14,-3.465 4.097,-5.998 5.863,-7.597 1.775,-1.593 3.515,-2.393 5.213,-2.393 0.862,0 1.536,0.232 2.013,0.688 0.483,0.463 0.723,1.102 0.723,1.923 0,0.933 -0.793,3.359 -2.385,7.294 l -0.52,1.291 c -0.337,0.842 -0.61,1.613 -0.807,2.336 -0.203,0.715 -0.302,1.228 -0.302,1.529 0,0.505 0.189,0.862 0.575,1.065 0.386,0.211 1.144,0.345 2.287,0.414 l -0.786,2.777 -0.47,0 c -2.252,0 -3.894,-0.302 -4.945,-0.904 -1.045,-0.604 -1.571,-1.55 -1.571,-2.834 0,-0.589 0.197,-1.494 0.597,-2.715 0.399,-1.22 1.003,-2.777 1.81,-4.664 l 0.161,-0.393 c 0.701,-1.571 1.052,-2.505 1.052,-2.792 0,-0.238 -0.056,-0.406 -0.175,-0.519 -0.119,-0.105 -0.295,-0.162 -0.547,-0.162 -0.807,0 -2.056,1.024 -3.746,3.08 -1.697,2.055 -3.178,4.552 -4.454,7.483 -0.26,0.59 -0.54,1.305 -0.841,2.161 -0.576,1.564 -1.698,2.342 -3.368,2.342 -0.547,0 -0.933,-0.049 -1.149,-0.153 -0.218,-0.105 -0.33,-0.288 -0.33,-0.547 0,-0.134 0.035,-0.316 0.112,-0.548 0.078,-0.223 0.197,-0.511 0.358,-0.847 z"
     id="path3"
     inkscape:connector-curvature="0"
     style="fill:#f5f5f5" /><path
     d="M 5.676,15.523 C 5.437,16 5.129,16.365 4.736,16.603 4.35,16.841 3.887,16.962 3.354,16.962 2.28,16.962 1.459,16.526 0.877,15.663 0.294,14.801 0,13.565 0,11.944 0,8.667 1.018,5.86 3.053,3.516 5.088,1.172 7.53,0 10.379,0 c 1.964,0 3.494,0.484 4.596,1.459 1.102,0.977 1.656,2.323 1.656,4.05 0,0.947 -0.168,2.182 -0.512,3.697 -0.344,1.523 -0.891,3.467 -1.649,5.824 3.088,-5.501 5.677,-9.347 7.775,-11.536 2.091,-2.196 4.161,-3.291 6.203,-3.291 1.221,0 2.169,0.387 2.85,1.151 0.681,0.764 1.018,1.846 1.018,3.228 0,1.713 -1.074,4.94 -3.228,9.684 l -0.47,1.011 C 32.197,9.79 35.2,5.875 37.635,3.523 c 2.428,-2.351 4.659,-3.522 6.687,-3.522 1.123,0 2.049,0.379 2.765,1.144 0.723,0.758 1.081,1.733 1.081,2.927 0,1.698 -1.151,5.276 -3.453,10.729 l -0.554,1.318 -0.33,0.801 c -2.309,5.522 -3.459,8.792 -3.459,9.803 0,0.933 0.316,1.613 0.948,2.049 0.631,0.428 1.663,0.666 3.087,0.708 l -0.8,2.758 -0.618,0 c -2.716,0 -4.695,-0.448 -5.937,-1.347 -1.242,-0.898 -1.859,-2.315 -1.859,-4.245 0,-1.698 1.361,-5.727 4.091,-12.07 0.575,-1.327 1.018,-2.358 1.333,-3.081 l 0.21,-0.478 C 42.035,8.168 42.638,6.413 42.638,5.754 42.638,5.452 42.54,5.2 42.35,4.983 42.161,4.772 41.929,4.667 41.669,4.667 c -1.053,0 -3.01,1.727 -5.866,5.172 -2.856,3.446 -5.431,7.481 -7.719,12.098 -0.73,1.425 -1.425,2.891 -2.091,4.386 -0.66,1.502 -1.292,3.031 -1.88,4.575 -0.232,0.617 -0.519,1.011 -0.87,1.179 -0.351,0.161 -0.919,0.246 -1.698,0.246 -1.179,0 -2.049,-0.099 -2.61,-0.302 -0.562,-0.196 -0.842,-0.498 -0.842,-0.912 0,-0.232 0.505,-1.474 1.523,-3.72 0.793,-1.796 1.453,-3.291 1.972,-4.483 1.916,-4.414 3.417,-8.084 4.491,-11.003 1.074,-2.919 1.614,-4.771 1.614,-5.551 0,-0.428 -0.126,-0.779 -0.372,-1.06 -0.246,-0.281 -0.554,-0.421 -0.926,-0.421 -1.313,0 -3.137,1.529 -5.467,4.596 -2.33,3.06 -4.589,6.982 -6.779,11.748 -0.828,1.796 -1.649,3.804 -2.47,6.007 -0.821,2.21 -1.298,3.452 -1.417,3.726 -0.273,0.632 -0.568,1.018 -0.884,1.158 -0.316,0.147 -0.947,0.218 -1.895,0.218 -0.968,0 -1.726,-0.105 -2.259,-0.309 -0.534,-0.204 -0.8,-0.491 -0.8,-0.863 0,-0.387 0.505,-1.79 1.523,-4.218 1.01,-2.428 1.845,-4.519 2.504,-6.273 1.081,-2.807 1.944,-5.459 2.583,-7.958 0.639,-2.491 0.954,-4.315 0.954,-5.466 0,-0.948 -0.231,-1.678 -0.688,-2.19 C 10.837,4.535 10.185,4.276 9.336,4.276 7.912,4.276 6.684,4.999 5.659,6.444 4.627,7.89 4.115,9.616 4.115,11.616 c 0,0.85 0.141,1.628 0.421,2.337 0.276,0.699 0.655,1.226 1.14,1.57 m 95.659,16.704 c -1.658,0.266 -3.042,0.096 -3.968,-0.427 -0.825,0.349 -1.69,0.521 -2.601,0.521 -0.976,0 -1.817,-0.127 -2.54,-0.379 -0.716,-0.26 -1.333,-0.646 -1.839,-1.165 -0.905,0.449 -1.838,0.8 -2.806,1.039 -0.969,0.238 -2.021,0.378 -3.172,0.42 l 0.821,-2.778 c 0.75,-0.042 1.424,-0.134 2.021,-0.288 0.596,-0.146 1.137,-0.357 1.614,-0.631 -0.162,-0.457 -0.288,-0.934 -0.365,-1.432 -0.084,-0.499 -0.126,-1.031 -0.126,-1.593 0,-1.523 0.309,-3.102 0.934,-4.73 0.625,-1.627 1.48,-3.08 2.561,-4.336 0.947,-1.123 2.077,-2.035 3.396,-2.736 1.312,-0.695 2.54,-1.046 3.677,-1.046 0.302,0 0.541,0.063 0.708,0.196 0.176,0.127 0.26,0.302 0.26,0.52 0,0.302 -0.33,0.779 -0.997,1.432 -0.667,0.652 -1.179,1.192 -1.537,1.635 -1.41,1.769 -2.491,3.558 -3.249,5.375 -0.751,1.818 -1.13,3.522 -1.13,5.108 0,0.758 0.168,1.348 0.505,1.769 0.337,0.428 0.8,0.639 1.39,0.639 1.411,0 2.786,-1.011 4.133,-3.031 1.347,-2.021 2.042,-4.309 2.098,-6.855 -0.688,-0.113 -1.207,-0.365 -1.565,-0.766 -0.357,-0.4 -0.533,-0.933 -0.533,-1.6 0,-0.976 0.273,-1.783 0.821,-2.421 0.547,-0.639 1.242,-0.954 2.077,-0.954 0.92,0 1.628,0.372 2.141,1.108 0.505,0.744 0.758,1.775 0.758,3.109 0,1.656 -0.267,3.348 -0.793,5.066 -0.526,1.72 -1.27,3.298 -2.231,4.744 -0.459,0.694 -0.936,1.312 -1.428,1.849 0.48,0.008 0.992,-0.04 1.525,-0.122 l 0.002,-0.008 c 1.698,-0.288 3.256,-1.445 4.666,-3.467 1.411,-2.021 3.039,-5.536 4.891,-10.554 -0.316,-0.315 -0.548,-0.667 -0.702,-1.046 -0.147,-0.386 -0.225,-0.82 -0.225,-1.318 0,-0.982 0.274,-1.804 0.814,-2.456 0.54,-0.652 1.221,-0.976 2.042,-0.976 0.758,0 1.354,0.203 1.79,0.617 0.442,0.407 0.66,0.962 0.66,1.643 0,0.329 -0.036,0.639 -0.105,0.919 -0.063,0.28 -0.176,0.562 -0.323,0.85 0.695,0.441 1.6,0.968 2.709,1.585 2.014,1.081 3.024,2.156 3.024,3.229 0,0.905 -0.548,2.498 -1.643,4.785 -1.101,2.288 -1.649,3.846 -1.649,4.667 0,0.498 0.19,0.842 0.569,1.038 0.372,0.196 1.354,0.365 2.926,0.505 l -0.8,2.758 -0.618,0 c -2.463,0 -4.238,-0.287 -5.326,-0.855 -1.081,-0.568 -1.621,-1.488 -1.621,-2.765 0,-1.137 0.519,-2.828 1.55,-5.066 1.031,-2.238 1.551,-3.678 1.551,-4.309 0,-0.302 -0.175,-0.61 -0.533,-0.934 -0.358,-0.322 -0.961,-0.729 -1.81,-1.228 -1.832,5.305 -3.727,9.122 -5.685,11.444 -1.892,2.253 -4.128,3.49 -6.713,3.696 l -0.001,0.006 z M 52.648,25.839 c 1.425,-0.927 2.625,-2.184 3.6,-3.769 0.976,-1.586 1.46,-2.962 1.46,-4.141 0,-0.589 -0.147,-1.039 -0.435,-1.348 -0.288,-0.309 -0.702,-0.463 -1.25,-0.463 -1.144,0 -2.147,0.667 -3.024,2.007 -0.877,1.334 -1.319,2.885 -1.319,4.652 0,0.674 0.077,1.249 0.224,1.74 0.155,0.486 0.401,0.928 0.744,1.322 z m -2.118,4.342 c -1.326,0.632 -2.66,1.115 -4,1.459 -1.333,0.345 -2.68,0.541 -4.042,0.597 l 0.829,-2.778 c 0.94,-0.07 1.817,-0.196 2.617,-0.393 0.8,-0.189 1.579,-0.449 2.337,-0.779 -0.519,-0.688 -0.905,-1.467 -1.151,-2.344 -0.245,-0.877 -0.372,-1.901 -0.372,-3.08 0,-2.744 0.933,-5.13 2.807,-7.159 1.874,-2.028 4.077,-3.038 6.631,-3.038 1.424,0 2.554,0.428 3.382,1.284 0.828,0.856 1.242,2.028 1.242,3.502 0,1.621 -0.589,3.402 -1.775,5.354 -1.186,1.958 -2.765,3.677 -4.744,5.172 0.575,0.533 1.207,0.912 1.88,1.144 0.681,0.225 1.516,0.337 2.498,0.337 l 0.288,0 -0.8,2.778 -0.554,0 c -1.537,0 -2.884,-0.168 -4.049,-0.505 -1.164,-0.337 -2.176,-0.856 -3.024,-1.551 z m 6.505,2.056 0.778,-2.778 c 1.537,-0.147 2.73,-0.667 3.586,-1.551 0.856,-0.884 1.614,-2.498 2.273,-4.842 l 1.727,-6.104 -2,0 c -0.302,0 -0.505,-0.036 -0.618,-0.113 -0.105,-0.078 -0.161,-0.211 -0.161,-0.4 0,-0.028 0,-0.063 0.007,-0.105 0.007,-0.042 0.035,-0.119 0.078,-0.245 l 0.33,-0.982 c 0.077,-0.26 0.217,-0.442 0.421,-0.54 0.197,-0.092 0.589,-0.141 1.179,-0.141 l 1.523,0 2.014,-6.659 c 0.113,-0.358 0.246,-0.85 0.393,-1.48 0.428,-1.783 1.277,-2.674 2.554,-2.674 0.905,0 1.607,0.112 2.119,0.337 0.505,0.231 0.758,0.547 0.758,0.961 0,0.273 -0.155,0.801 -0.471,1.579 -0.168,0.414 -0.288,0.744 -0.372,0.989 l -2.365,6.947 3.453,0 c 0.259,0 0.456,0.035 0.596,0.112 0.133,0.077 0.204,0.196 0.204,0.357 0,0.07 0,0.134 -0.007,0.189 -0.007,0.05 -0.021,0.105 -0.035,0.161 l -0.351,0.99 c -0.077,0.259 -0.231,0.441 -0.449,0.554 -0.217,0.105 -0.604,0.163 -1.15,0.163 l -3.025,0 -2.014,6.638 c -0.231,0.744 -0.407,1.383 -0.512,1.923 -0.112,0.54 -0.168,0.982 -0.168,1.326 0,0.778 0.372,1.39 1.116,1.831 0.736,0.436 1.838,0.695 3.305,0.779 l -0.8,2.778 -0.491,0 c -1.824,0 -3.354,-0.217 -4.589,-0.646 -1.235,-0.435 -2.126,-1.059 -2.673,-1.888 -0.877,0.758 -1.845,1.354 -2.905,1.79 -1.062,0.442 -2.15,0.688 -3.258,0.744 z m 22.981,-6.398 c 1.425,-0.927 2.625,-2.184 3.6,-3.769 0.975,-1.586 1.459,-2.962 1.459,-4.141 0,-0.589 -0.147,-1.039 -0.435,-1.348 -0.288,-0.309 -0.702,-0.463 -1.249,-0.463 -1.144,0 -2.147,0.667 -3.024,2.007 -0.877,1.334 -1.32,2.885 -1.32,4.652 0,0.674 0.077,1.249 0.225,1.74 0.155,0.486 0.4,0.928 0.744,1.322 z m -2.119,4.342 c -1.327,0.632 -2.66,1.115 -4,1.459 -1.333,0.345 -2.681,0.541 -4.042,0.597 l 0.828,-2.778 c 0.94,-0.07 1.817,-0.196 2.617,-0.393 0.8,-0.189 1.579,-0.449 2.337,-0.779 -0.52,-0.688 -0.905,-1.467 -1.151,-2.344 -0.246,-0.877 -0.372,-1.901 -0.372,-3.08 0,-2.744 0.934,-5.13 2.807,-7.159 1.874,-2.028 4.077,-3.038 6.631,-3.038 1.424,0 2.554,0.428 3.382,1.284 0.828,0.856 1.242,2.028 1.242,3.502 0,1.621 -0.589,3.402 -1.775,5.354 -1.186,1.958 -2.765,3.677 -4.743,5.172 0.575,0.533 1.207,0.912 1.88,1.144 0.681,0.225 1.516,0.337 2.498,0.337 l 0.288,0 -0.8,2.778 -0.555,0 c -1.536,0 -2.884,-0.168 -4.049,-0.505 -1.163,-0.337 -2.174,-0.856 -3.023,-1.551 z"
     id="path5"
     inkscape:connector-curvature="0"
     style="fill:#f5f5f5" /></svg>