<?xml version="1.0" encoding="UTF-8" standalone="no"?>
<!-- Generator: Adobe Illustrator 16.0.0, SVG Export Plug-In . SVG Version: 6.00 Build 0)  -->

<svg
   xmlns:dc="http://purl.org/dc/elements/1.1/"
   xmlns:cc="http://creativecommons.org/ns#"
   xmlns:rdf="http://www.w3.org/1999/02/22-rdf-syntax-ns#"
   xmlns:svg="http://www.w3.org/2000/svg"
   xmlns="http://www.w3.org/2000/svg"
   xmlns:sodipodi="http://sodipodi.sourceforge.net/DTD/sodipodi-0.dtd"
   xmlns:inkscape="http://www.inkscape.org/namespaces/inkscape"
   version="1.1"
   id="Layer_1"
   x="0px"
   y="0px"
   width="251.13148"
   height="160.45135"
   viewBox="0 0 251.13149 160.45136"
   enable-background="new 0 0 283.465 283.465"
   xml:space="preserve"
   inkscape:version="0.91 r13725"
   sodipodi:docname="kitchen-logo-light.svg"><metadata
     id="metadata13"><rdf:RDF><cc:Work
         rdf:about=""><dc:format>image/svg+xml</dc:format><dc:type
           rdf:resource="http://purl.org/dc/dcmitype/StillImage" /><dc:title></dc:title></cc:Work></rdf:RDF></metadata><defs
     id="defs11" /><sodipodi:namedview
     pagecolor="#ffffff"
     bordercolor="#666666"
     borderopacity="1"
     objecttolerance="10"
     gridtolerance="10"
     guidetolerance="10"
     inkscape:pageopacity="0"
     inkscape:pageshadow="2"
     inkscape:window-width="1440"
     inkscape:window-height="795"
     id="namedview9"
     showgrid="false"
     fit-margin-top="0"
     fit-margin-left="0"
     fit-margin-right="0"
     fit-margin-bottom="0"
     inkscape:zoom="0.83255429"
     inkscape:cx="122.21447"
     inkscape:cy="47.921127"
     inkscape:window-x="0"
     inkscape:window-y="1"
     inkscape:window-maximized="1"
     inkscape:current-layer="Layer_1" /><path
     d="m 131.16198,14.892736 c 4.344,5.718 5.612,12.168 4.476,20.798 5.703,-9.537 4.521,-16.728 -4.476,-20.798 m -16.235,3.86 c -8.151,-0.918 -15.693004,1.375 -18.036004,5.043 -2.344,3.669 -1.632,13.221 3.973004,16.966 12.674,8.279 24.697,9.884 36.072,-3.363 7.948,-12.331 2.548,-27.054 -11.616,-23.538 l -10.393,4.892 z m 63.396,80.775 c -6.463,0.884004 -13.111,-1.42 -15.672,-9.373 -0.192,9.411 -22.824,18.138004 -29.05,0.74 -1.439,9.390004 -22.757,16.268004 -30.417,0.747 -2.868,10.244004 -27.278004,15.757004 -29.510004,-0.276 0.179,7.707 -7.226,10.894004 -14.851,10.661004 l 6.756,22.881 c 22.47,-3.05 54.055004,-9.651 94.747004,-20.551 l 0,0 c 0.504,-0.133 1.039,0.134 1.228,0.634 0.201,0.531 -0.067,1.125 -0.601,1.325 -23.797,8.943 -49.857,17.268 -73.894004,23.49 -6.404,1.659 -12.666,3.168 -18.705,4.501 l 4.196,14.21 0.022,0.077 c 0.257,0.966 2.632,1.987 6.409,2.994 9.05,2.414 24.409004,3.405 39.736004,3.208 15.34,-0.196 30.565,-1.584 39.34,-3.924 3.489,-0.93 5.632,-1.728 5.778,-2.278 l 0.022,-0.077 8.967,-30.372 c -23.416,6.874 -49.475,13.01 -74.000004,17.52 -0.56,0.103 -1.095,-0.268 -1.197,-0.826 -0.097,-0.525 0.227,-1.029 0.728,-1.174 l 0,-0.002 c 31.979004,-9.185 57.707004,-17.739 77.372004,-25.348 l 2.596,-8.787004 z m -75.2,-82.729 c 3.287,-0.919 7.23,-1.296 11.322,-0.93 2.179,-1.024 -4.171,-9.1969997 -10.274,-12.6029997 -3.776,-3.31599996 5.519,-5.988 8.255,1.833 2.227,4.839 2.902,4.504 4.864,9.4309997 8.168,-3.779 18.188,-7.0379997 23.878,2.42 3.752,6.235 2.453,14.36 -0.935,20.435 32.312,6.968 58.746,25.876 52.782,51.996 -1.077,3.3 -4.272,6.286 -8.236,8.189 l -2.396,8.114004 c 14.801,-5.988004 25.629,-11.329004 32.58,-15.854004 4.755,-3.096 7.626,-5.75 8.644,-7.908 0.819,-1.734 0.187,-3.147 -1.872,-4.192 -3.669,-1.864 -11.196,-2.673 -22.489,-2.256 -0.568,0.024 -1.047,-0.419 -1.068,-0.988 -0.021,-0.528 0.36,-0.98 0.872,-1.057 l 0,-0.001 c 23.591,-3.685 38.223,-3.803 45.613,-1.642 3.262,0.955 5.236,2.389 6.046,4.189 0.84,1.873 0.412,4.018 -1.146,6.341 -2.868,4.275 -9.818,9.381 -19.816,14.556 -12.688,6.569004 -30.439,13.212004 -50.471,19.342004 l -10.006,33.89 c -0.777,2.717 -4.346,4.775 -9.775,6.222 -9.183,2.448 -24.928,3.898 -40.708,4.101 -15.792,0.203 -31.712004,-0.843 -41.239004,-3.385 -5.731,-1.529 -9.54,-3.807 -10.413,-6.965 l -4.306,-14.585 c -12.8,2.65 -24.431,4.427 -34.062,5.042 -11.245,0.716 -19.8309998,-0.076 -24.4869998,-2.259 -2.529,-1.185 -3.99999996,-2.805 -4.24499996,-4.849 -0.236,-1.959 0.717,-4.202 3.01999996,-6.698 5.216,-5.66 17.8049998,-13.095 39.8939998,-22.085 0.488,-0.224 1.073,-0.037 1.334,0.44 0.273,0.498 0.09,1.125 -0.408,1.398 -9.894,5.461 -15.929,10.035 -18.113,13.521 -1.224,1.954 -1.039,3.49 0.555,4.555 1.991,1.326 5.818,2.125 11.489,2.326 5.636,0.202 13.009,-0.197 22.108,-1.26 l -7.244,-24.531 c -4.802,-1.349004 -8.805,-4.085004 -9.822,-7.884004 -3.988,-34.633 20.644,-52.373 51.106,-57.307 -1.472,-4.103 -1.863,-9.815 0.565,-13.617 1.57,-2.46 4.682,-4.388 8.604004,-5.485 z"
     id="path3"
     inkscape:connector-curvature="0"
     style="fill:#f5f5f5" /></svg>