<?xml version="1.0" encoding="UTF-8" standalone="no"?>
<!-- Generator: Adobe Illustrator 16.0.0, SVG Export Plug-In . SVG Version: 6.00 Build 0)  -->

<svg
   xmlns:dc="http://purl.org/dc/elements/1.1/"
   xmlns:cc="http://creativecommons.org/ns#"
   xmlns:rdf="http://www.w3.org/1999/02/22-rdf-syntax-ns#"
   xmlns:svg="http://www.w3.org/2000/svg"
   xmlns="http://www.w3.org/2000/svg"
   xmlns:sodipodi="http://sodipodi.sourceforge.net/DTD/sodipodi-0.dtd"
   xmlns:inkscape="http://www.inkscape.org/namespaces/inkscape"
   version="1.1"
   id="Layer_1"
   x="0px"
   y="0px"
   width="1260.8795"
   height="180.45135"
   viewBox="0 0 1260.8795 180.45136"
   enable-background="new 0 0 283.465 283.465"
   xml:space="preserve"
   inkscape:version="0.91 r13725"
   sodipodi:docname="kitchen-logo-5.svg"><metadata
     id="metadata9"><rdf:RDF><cc:Work
         rdf:about=""><dc:format>image/svg+xml</dc:format><dc:type
           rdf:resource="http://purl.org/dc/dcmitype/StillImage" /><dc:title></dc:title></cc:Work></rdf:RDF></metadata><defs
     id="defs7" /><sodipodi:namedview
     pagecolor="#ffffff"
     bordercolor="#666666"
     borderopacity="1"
     objecttolerance="10"
     gridtolerance="10"
     guidetolerance="10"
     inkscape:pageopacity="0"
     inkscape:pageshadow="2"
     inkscape:window-width="1428"
     inkscape:window-height="741"
     id="namedview5"
     showgrid="false"
     showguides="true"
     inkscape:guide-bbox="true"
     fit-margin-top="10"
     fit-margin-left="10"
     fit-margin-right="10"
     fit-margin-bottom="10"
     inkscape:zoom="0.83255429"
     inkscape:cx="538.951"
     inkscape:cy="90.225675"
     inkscape:window-x="59"
     inkscape:window-y="3"
     inkscape:window-maximized="0"
     inkscape:current-layer="Layer_1"><sodipodi:guide
       position="205.48297,135.86835"
       orientation="0,1"
       id="guide3416" /><sodipodi:guide
       position="193.47174,10.951566"
       orientation="0,1"
       id="guide3418" /></sodipodi:namedview><path
     d="m 141.16198,24.892736 c 4.344,5.718 5.612,12.168 4.476,20.798 5.703,-9.537 4.521,-16.728 -4.476,-20.798 m -16.235,3.86 c -8.151,-0.918 -15.693,1.375 -18.036,5.043 -2.344,3.669 -1.632,13.221 3.973,16.966001 12.674,8.279 24.697,9.884 36.072,-3.363001 7.948,-12.331 2.548,-27.054 -11.616,-23.538 l -10.393,4.892 z m 63.396,80.775004 c -6.463,0.884 -13.111,-1.421 -15.672,-9.373 -0.192,9.411 -22.824,18.139 -29.05,0.74 -1.439,9.391 -22.757,16.269 -30.417,0.747 -2.868,10.244 -27.278004,15.758 -29.510004,-0.275 0.179,7.706 -7.226,10.894 -14.851,10.661 l 6.756,22.881 c 22.47,-3.05 54.055004,-9.651 94.747004,-20.551 l 0,0 c 0.504,-0.133 1.039,0.134 1.228,0.634 0.201,0.531 -0.067,1.126 -0.601,1.325 -23.797,8.943 -49.857,17.269 -73.894004,23.49 -6.404,1.659 -12.666,3.168 -18.705,4.501 l 4.196,14.21 0.022,0.077 c 0.257,0.966 2.632,1.987 6.409,2.994 9.05,2.414 24.409004,3.405 39.736004,3.208 15.34,-0.196 30.565,-1.584 39.34,-3.924 3.489,-0.93 5.632,-1.728 5.778,-2.278 l 0.022,-0.077 8.967,-30.372 c -23.416,6.874 -49.475,13.01 -74,17.52 -0.56,0.103 -1.095,-0.268 -1.197,-0.826 -0.097,-0.525 0.227,-1.029 0.728,-1.174 l 0,-0.002 c 31.979,-9.185 57.707,-17.739 77.372,-25.349 l 2.596,-8.787 z m -75.2,-82.729004 c 3.287,-0.919 7.23,-1.296 11.322,-0.93 2.179,-1.024 -4.171,-9.197 -10.274,-12.603 -3.776,-3.3159997 5.519,-5.9879997 8.255,1.833 2.227,4.839 2.902,4.504 4.864,9.431 8.168,-3.779 18.188,-7.038 23.878,2.42 3.752,6.235 2.453,14.36 -0.935,20.435 32.312,6.968001 58.746,25.876001 52.782,51.996001 -1.077,3.300003 -4.272,6.286003 -8.236,8.188003 l -2.396,8.114 c 14.801,-5.988 25.629,-11.329 32.58,-15.854003 4.755,-3.096 7.626,-5.75 8.644,-7.908 0.819,-1.733 0.187,-3.146 -1.872,-4.191 -3.669,-1.864 -11.196,-2.673 -22.489,-2.256 -0.568,0.024 -1.047,-0.419 -1.068,-0.988 -0.021,-0.528 0.36,-0.98 0.872,-1.057 l 0,-0.001 c 23.591,-3.685 38.223,-3.803 45.613,-1.642 3.262,0.955 5.236,2.389 6.046,4.189 0.84,1.873 0.412,4.018 -1.146,6.34 -2.868,4.275 -9.818,9.382003 -19.816,14.557003 -12.688,6.569 -30.439,13.212 -50.471,19.342 l -10.006,33.89 c -0.777,2.717 -4.346,4.775 -9.775,6.222 -9.183,2.448 -24.928,3.898 -40.708,4.101 -15.792,0.203 -31.712004,-0.843 -41.239004,-3.385 -5.731,-1.529 -9.54,-3.807 -10.413,-6.965 l -4.306,-14.585 c -12.8,2.65 -24.431,4.427 -34.062,5.042 -11.245,0.716 -19.831,-0.076 -24.487,-2.259 -2.529,-1.185 -4,-2.805 -4.245,-4.849 -0.2359998,-1.959 0.717,-4.202 3.02,-6.698 5.216,-5.66 17.805,-13.095 39.894,-22.086 0.488,-0.224 1.073,-0.037 1.334,0.44 0.273,0.498 0.09,1.124 -0.408,1.398 -9.894,5.461 -15.929,10.035 -18.113,13.521 -1.224,1.954 -1.039,3.49 0.555,4.555 1.991,1.326 5.818,2.125 11.489,2.326 5.636,0.202 13.009,-0.197 22.108,-1.26 l -7.244,-24.529 c -4.802,-1.349 -8.805,-4.085 -9.822,-7.884 -3.988,-34.633003 20.644,-52.372003 51.106004,-57.307004 -1.472,-4.104 -1.863,-9.817 0.565,-13.618 1.57,-2.46 4.682,-4.389 8.604,-5.485 z"
     id="path3"
     inkscape:connector-curvature="0"
     style="fill:#333333" /><g
     id="g3412"
     transform="matrix(1.2112573,0,0,1.2112573,-72.104622,-38.827003)"><path
       id="path3384"
       d="m 762.39115,59.6834 c -1.45115,7.395467 -2.98486,14.590885 -4.68051,21.583078 -1.67025,6.969966 -3.45164,13.676375 -5.32512,20.112872 0.87006,-0.33341 1.71471,-0.60014 2.49585,-0.77796 0.77797,-0.181 1.55911,-0.24451 2.33708,-0.24451 0.13337,0 0.35565,0.0222 0.67001,0.0445 0.28896,0.0444 0.51124,0.0667 0.6446,0.0667 6.08086,-6.947739 11.49171,-13.428696 16.21351,-19.39524 4.72179,-5.991948 8.15121,-10.691515 10.28824,-14.143156 0.64778,-1.114559 1.4702,-2.606989 2.47362,-4.432835 2.60382,-4.877388 6.36982,-7.306556 11.29166,-7.306556 3.14046,0 5.61408,0.333415 7.46215,1.003421 1.84808,0.689058 2.78481,1.581341 2.78481,2.714953 0,2.829266 -3.78505,8.398888 -11.35834,16.705689 -7.57329,8.306802 -17.17247,17.128016 -28.84518,26.435064 4.09942,1.04788 7.10651,2.56571 9.06572,4.58843 1.95921,2.02907 2.9404,4.65511 2.9404,7.86542 0,2.6959 -1.11456,7.32879 -3.31827,13.89865 -2.22912,6.5667 -3.34368,11.11384 -3.34368,13.63192 0,2.35931 0.73351,4.05179 2.18466,5.05521 1.47021,1.02248 4.01051,1.6258 7.68443,1.80362 l -2.56253,8.75136 -0.77797,0 c -7.99879,0 -13.89865,-1.09234 -17.68371,-3.29288 -3.78823,-2.20689 -5.68076,-5.59502 -5.68076,-10.22473 0,-3.34368 1.20347,-8.44334 3.61041,-15.3244 2.38154,-6.88423 3.58501,-11.4282 3.58501,-13.63192 0,-1.00024 -0.42233,-1.89253 -1.26698,-2.65144 -0.84783,-0.75574 -2.09575,-1.33684 -3.69932,-1.73694 -1.53371,2.49585 -3.45164,4.47729 -5.74745,5.96972 -2.31485,1.51784 -4.83293,2.40694 -7.57328,2.71496 -5.03299,13.31755 -10.86934,23.05328 -17.48366,29.20082 -6.6175,6.16659 -14.45752,9.24036 -23.54229,9.24036 -5.96972,0 -10.85029,-1.51466 -14.6798,-4.5662 -3.83268,-3.05154 -5.74744,-6.90328 -5.74744,-11.56157 0,-2.18466 0.55569,-3.96288 1.69248,-5.38862 1.13679,-1.40035 2.58476,-2.11481 4.32169,-2.11481 l 0.37788,0 c 0.78114,3.31828 2.38153,5.81413 4.78847,7.52883 2.42917,1.69248 5.59185,2.53714 9.48805,2.53714 7.97338,0 15.03226,-5.88081 21.18298,-17.61703 6.14754,-11.76162 12.18077,-30.959983 18.10603,-57.642726 -2.36248,-0.466782 -4.45506,-0.822425 -6.30313,-1.022474 -1.84808,-0.222276 -3.54056,-0.333415 -5.05521,-0.333415 -5.08062,0 -8.6434,0.692234 -10.62484,2.092578 -2.00684,1.381291 -3.21031,3.94065 -3.58818,7.684426 -0.22228,0.04763 -0.4636,0.08891 -0.69223,0.111139 -0.24451,0.02223 -0.57792,0.02223 -1.02248,0.02223 -2.07034,0 -3.78505,-0.622375 -5.07743,-1.892528 -1.31461,-1.270153 -1.95921,-2.918177 -1.95921,-4.966299 0,-4.832933 2.29262,-8.617989 6.88105,-11.4028 4.58843,-2.784811 10.93602,-4.18833 19.02055,-4.18833 4.14387,0 8.32902,0.37787 12.58404,1.114559 4.28677,0.730338 8.76406,1.867125 13.46362,3.381783 m 15.59113,97.954207 2.47045,-8.81803 c 5.14412,-0.17783 9.5325,-3.00709 13.16514,-8.51003 3.62946,-5.49976 7.06205,-14.56548 10.26601,-27.17493 0.48901,-2.00366 1.04788,-4.54397 1.69248,-7.63679 1.31143,-6.569869 5.59185,-9.846864 12.87618,-9.846864 1.69248,0 2.98168,0.244505 3.87397,0.758917 0.8891,0.485833 1.33683,1.222522 1.33683,2.181488 0,1.292381 -0.75574,3.854909 -2.24817,7.614569 -1.49243,3.78823 -2.56253,6.72863 -3.23254,8.82121 l -6.25868,18.90941 -0.2445,0.78114 c -1.58134,4.5662 -2.35931,7.52566 -2.35931,8.88472 0,1.82902 0.59697,3.09918 1.82584,3.81046 1.22252,0.71446 3.71838,1.18124 7.50343,1.40035 l -2.47045,8.81803 -2.2958,0 c -5.61407,0 -9.82146,-0.73033 -12.6285,-2.18148 -2.81021,-1.47338 -4.47729,-3.81046 -4.98852,-7.03983 -2.58159,2.96263 -5.34735,5.21398 -8.32903,6.70324 -2.98169,1.52418 -6.29996,2.34978 -9.95483,2.52442 z m 44.05527,-81.896295 c -2.51808,0 -4.45189,-0.692234 -5.83636,-2.051298 -1.35906,-1.381291 -2.0513,-3.318275 -2.0513,-5.858581 0,-3.248417 1.00343,-6.014176 3.02932,-8.240119 2.02907,-2.251347 4.45506,-3.365906 7.28115,-3.365906 2.29898,0 4.21056,0.755741 5.72839,2.295802 1.53371,1.514658 2.29581,3.473869 2.29581,5.855406 0,3.23254 -1.00342,5.925265 -3.00709,8.109928 -2.00367,2.162436 -4.47729,3.254768 -7.43992,3.254768 z m -9.35151,81.896295 2.47045,-8.81803 c 4.87739,-0.46679 8.66562,-2.11481 11.38057,-4.92185 2.71813,-2.80704 5.1219,-7.92893 7.21447,-15.37203 l 5.48389,-19.37618 -6.35077,0 c -0.95896,0 -1.60356,-0.11114 -1.95921,-0.35565 -0.33024,-0.2445 -0.51123,-0.67 -0.51123,-1.26697 0,-0.0921 0,-0.20005 0.0222,-0.33342 0.0222,-0.13337 0.11114,-0.37787 0.24451,-0.78114 l 1.04787,-3.11505 c 0.24451,-0.8256 0.69224,-1.40352 1.33684,-1.71471 0.62238,-0.29214 1.8703,-0.44773 3.7406,-0.44773 l 4.83294,0 6.39204,-21.135347 c 0.35882,-1.136787 0.78115,-2.6959 1.2511,-4.699566 1.35907,-5.655358 4.05179,-8.484624 8.10993,-8.484624 2.87055,0 5.09649,0.352468 6.72229,1.066929 1.60674,0.733513 2.40694,1.74011 2.40694,3.051543 0,0.86688 -0.48901,2.540306 -1.49243,5.01393 -0.53347,1.311433 -0.91451,2.356134 -1.18125,3.137278 l -7.50343,22.049857 10.95825,0 c 0.8256,0 1.44798,0.11114 1.89253,0.35564 0.42232,0.24451 0.6446,0.62238 0.6446,1.13361 0,0.22228 0,0.42551 -0.0222,0.60015 -0.0222,0.15877 -0.0667,0.33342 -0.11113,0.51124 l -1.11456,3.14045 c -0.24451,0.8256 -0.73352,1.40352 -1.42258,1.75916 -0.69223,0.33342 -1.91793,0.51442 -3.65486,0.51442 l -9.59601,0 -6.39522,21.07184 c -0.73034,2.35931 -1.28921,4.3852 -1.6258,6.10308 -0.35564,1.71471 -0.53346,3.11505 -0.53346,4.20739 0,2.47044 1.17807,4.41378 3.54055,5.81412 2.33708,1.38129 5.83318,2.20372 10.48829,2.47045 l -2.53713,8.81804 -1.55911,0 c -5.78873,0 -10.64706,-0.68906 -14.56548,-2.04812 -3.9216,-1.38447 -6.75087,-3.36591 -8.4878,-5.99195 -2.78481,2.40376 -5.85858,4.29947 -9.21814,5.67758 -3.36908,1.4067 -6.81755,2.19102 -10.33905,2.36566 z m 40.69571,0 2.62604,-8.81803 c 2.65145,-0.13337 5.1219,-0.51124 7.43993,-1.17807 2.2958,-0.64778 4.47729,-1.58134 6.52858,-2.80704 -1.04787,-1.82902 -1.82584,-3.83269 -2.31485,-6.0364 -0.51124,-2.18467 -0.75574,-4.76625 -0.75574,-7.72888 0,-9.46582 3.36273,-17.7758 10.11359,-24.88231 6.74769,-7.103325 14.45435,-10.666105 23.16442,-10.666105 4.43284,0 7.97339,1.025649 10.60261,3.095999 2.62604,2.070346 3.94065,4.769426 3.94065,8.132156 0,2.25134 -0.67001,4.14387 -1.98462,5.63313 -1.33683,1.49243 -2.9404,2.25134 -4.8107,2.25134 -0.69224,0 -1.18125,-0.0889 -1.47021,-0.29213 -0.26673,-0.20005 -0.4255,-0.68906 -0.4255,-1.4702 0,-2.00367 -0.44455,-3.47387 -1.35906,-4.43284 -0.91134,-0.95897 -2.38154,-1.42575 -4.36298,-1.42575 -4.4106,0 -8.35443,2.36249 -11.85053,7.10651 -3.49609,4.74085 -5.25526,10.22156 -5.25526,16.43578 0,6.21423 1.93699,10.7836 5.83636,13.69861 3.89937,2.915 10.09137,4.43283 18.57916,4.5662 l -2.49585,8.81803 c -0.69223,0 -1.42257,0.0889 -2.20371,0.26674 -0.17782,0 -0.28896,0 -0.33342,0 -5.89986,0 -11.13607,-0.59698 -15.65781,-1.82585 -4.52175,-1.2257 -8.21789,-3.00391 -11.09161,-5.36322 -2.96264,2.18149 -6.30314,3.85174 -10.04692,4.98853 -3.75012,1.15584 -7.87177,1.80044 -12.41257,1.9338 z m 63.54259,-6.38887 c -1.91476,1.95922 -4.14387,3.45482 -6.68101,4.52175 -2.53713,1.0701 -5.43308,1.69248 -8.66562,1.8703 l 2.56254,-8.81804 c 4.39155,-0.26673 8.06547,-2.15926 11.00588,-5.68076 2.91817,-3.51515 5.78872,-9.61823 8.57353,-18.32831 l 13.63192,-42.540602 c 1.00025,-3.051543 2.09258,-6.8366 3.27382,-11.358345 2.02589,-7.817793 5.58867,-11.736216 10.62483,-11.736216 3.49927,0 5.85858,0.219102 7.0811,0.689058 1.24793,0.447729 1.87031,1.251101 1.87031,2.384713 0,1.20347 -0.84783,3.89937 -2.56254,8.017842 -0.69223,1.648024 -1.20347,2.940405 -1.55911,3.851739 l -21.26872,53.905301 c 6.79215,-11.0027 13.00637,-19.04595 18.62045,-24.12339 5.63313,-5.058379 11.15829,-7.598685 16.54692,-7.598685 2.74036,0 4.87739,0.736689 6.39522,2.184664 1.53371,1.470202 2.29263,3.499271 2.29263,6.106261 0,2.915 -2.53713,10.71056 -7.6368,23.43115 l -1.58134,3.96288 c -1.0701,2.60381 -1.93698,5.05838 -2.56253,7.30655 -0.64778,2.27358 -0.95897,3.87715 -0.95897,4.83294 0,1.60356 0.60015,2.73718 1.82585,3.38178 1.22569,0.67 3.63263,1.09551 7.25892,1.31461 l -2.49267,8.81804 -1.49243,0 c -7.15097,0 -12.36495,-0.95897 -15.70227,-2.87055 -3.31828,-1.91793 -4.98853,-4.92184 -4.98853,-8.99904 0,-1.8703 0.62238,-4.74402 1.8957,-8.62116 1.26698,-3.87397 3.18491,-8.81804 5.74745,-14.80999 l 0.51123,-1.24792 c 2.22595,-4.98853 3.34051,-7.95434 3.34051,-8.86567 0,-0.75574 -0.17782,-1.28921 -0.5557,-1.64803 -0.37787,-0.33341 -0.93673,-0.51441 -1.73693,-0.51441 -2.56253,0 -6.52859,3.25159 -11.89498,9.78018 -5.38863,6.52541 -10.0882,14.45434 -14.14316,23.76139 -0.8256,1.87348 -1.71471,4.14388 -2.67367,6.86201 -1.82585,4.96629 -5.38863,7.43674 -10.69152,7.43674 -1.73693,0 -2.96263,-0.15559 -3.64851,-0.48583 -0.69224,-0.33342 -1.04788,-0.91451 -1.04788,-1.73694 0,-0.4255 0.11114,-1.00342 0.35564,-1.74011 0.24133,-0.71446 0.6192,-1.62897 1.13044,-2.6959 z m 84.30646,-13.92088 c 4.5217,-2.9404 8.329,-6.92868 11.4282,-11.96166 3.096,-5.03616 4.6328,-9.39914 4.6328,-13.14291 0,-1.8703 -0.4667,-3.29605 -1.3844,-4.27724 -0.9114,-0.9812 -2.226,-1.47021 -3.9629,-1.47021 -3.6326,0 -6.8144,2.11481 -9.5992,6.36982 -2.78479,4.23279 -4.18514,9.15781 -4.18514,14.76553 0,2.14021 0.24451,3.96288 0.71446,5.52517 0.48266,1.54006 1.26378,2.94358 2.35618,4.1915 z m -6.7255,13.78752 c -4.21056,2.00366 -8.44335,3.54055 -12.69518,4.63288 -4.23279,1.09233 -8.51003,1.71471 -12.82855,1.89253 l 2.62604,-8.81804 c 2.98169,-0.2191 5.76967,-0.62237 8.3068,-1.24792 2.54031,-0.60015 5.01076,-1.42575 7.4177,-2.47045 -1.6512,-2.18467 -2.87372,-4.65829 -3.65169,-7.4431 -0.77797,-2.78164 -1.18125,-6.03323 -1.18125,-9.77383 0,-8.71007 2.96581,-16.28336 8.91013,-22.71986 5.94749,-6.436502 12.9397,-9.643639 21.0496,-9.643639 4.5218,0 8.1068,1.359064 10.736,4.077192 2.626,2.714947 3.9406,6.433327 3.9406,11.113837 0,5.14412 -1.8703,10.79948 -5.6331,16.99465 -3.766,6.21422 -8.7768,11.67271 -15.0545,16.41673 1.8259,1.6893 3.8295,2.89277 5.9697,3.62946 2.1625,0.71446 4.8107,1.07011 7.929,1.07011 l 0.9113,0 -2.5403,8.81804 -1.7592,0 c -4.8774,0 -9.1546,-0.53347 -12.8539,-1.60357 -3.6993,-1.07328 -6.9033,-2.72131 -9.5992,-4.92502 z m 35.993,0.13336 c -1.9148,1.95922 -4.1439,3.45482 -6.681,4.52175 -2.5435,1.0701 -5.4363,1.69248 -8.6657,1.8703 l 2.4959,-8.81804 c 4.5662,-0.17782 8.4402,-2.31485 11.6028,-6.41427 3.1849,-4.12165 6.0809,-10.73597 8.6847,-19.86837 1.2702,-4.41061 2.5625,-9.62141 3.9184,-15.66099 1.7401,-8.084525 4.4996,-12.136313 8.2846,-12.136313 3.4294,0 5.884,0.200049 7.3066,0.581095 1.4257,0.400098 2.1624,1.092331 2.1624,2.089402 0,0.736689 -1.3591,4.455056 -4.0518,11.161466 -2.6927,6.70641 -5.0806,13.16514 -7.1732,19.44605 6.7953,-11.0027 13.0096,-19.04595 18.6173,-24.12339 5.6363,-5.058379 11.1615,-7.598686 16.5533,-7.598686 2.7371,0 4.8774,0.736689 6.392,2.184664 1.5337,1.470202 2.2958,3.499272 2.2958,6.106262 0,2.96263 -2.5181,10.66611 -7.5733,23.16124 l -1.6512,4.09942 c -1.0701,2.67367 -1.937,5.12189 -2.5625,7.41769 -0.6446,2.2704 -0.959,3.89937 -0.959,4.85516 0,1.60357 0.6002,2.73718 1.8259,3.38179 1.2257,0.67 3.6326,1.0955 7.2621,1.31461 l -2.4959,8.81803 -1.4924,0 c -7.151,0 -12.365,-0.95896 -15.7023,-2.87054 -3.3183,-1.91793 -4.9885,-4.92185 -4.9885,-8.99904 0,-1.8703 0.6255,-4.74402 1.8957,-8.62116 1.267,-3.87397 3.1849,-8.81804 5.7474,-14.80999 l 0.5113,-1.24792 c 2.2259,-4.98853 3.3405,-7.95434 3.3405,-8.86567 0,-0.75574 -0.1778,-1.28921 -0.5557,-1.64803 -0.3779,-0.33341 -0.9368,-0.51441 -1.7369,-0.51441 -2.5626,0 -6.5286,3.25159 -11.895,9.78018 -5.3887,6.52541 -10.0914,14.45434 -14.1432,23.76139 -0.8256,1.87348 -1.7147,4.14388 -2.6705,6.862 -1.829,4.9663 -5.3918,7.43675 -10.6947,7.43675 -1.7369,0 -2.9626,-0.15559 -3.6485,-0.48583 -0.6922,-0.33342 -1.0479,-0.91451 -1.0479,-1.73694 0,-0.4255 0.1112,-1.00342 0.3557,-1.74011 0.2477,-0.70811 0.6255,-1.62262 1.1368,-2.68955 z"
       style="fill:#333333"
       inkscape:connector-curvature="0" /><path
       id="path3386"
       d="m 314.2811,104.47218 c -0.75891,1.51465 -1.73693,2.67367 -2.98486,3.42941 -1.22569,0.75574 -2.6959,1.13996 -4.38838,1.13996 -3.41036,0 -6.01735,-1.38446 -7.86542,-4.12482 -1.85125,-2.73718 -2.78481,-6.661953 -2.78481,-11.809249 0,-10.40573 3.23254,-19.31903 9.69444,-26.762127 6.46191,-7.443098 14.21619,-11.164647 23.26286,-11.164647 6.23645,0 11.09479,1.536885 14.59406,4.632884 3.49927,3.102349 5.25843,7.376414 5.25843,12.860301 0,3.007088 -0.53346,6.928686 -1.62579,11.739391 -1.09233,4.836108 -2.82927,11.009053 -5.23621,18.493427 9.80558,-17.467779 18.02665,-29.680302 24.6886,-36.631215 6.63973,-6.973141 13.21277,-10.450185 19.69691,-10.450185 3.87714,0 6.8874,1.228873 9.04984,3.654865 2.16243,2.425993 3.23254,5.861757 3.23254,10.250137 0,5.439431 -3.41036,15.686392 -10.25014,30.750408 l -1.49243,3.21031 c 11.3647,-17.423324 20.90037,-29.854948 28.63243,-37.323449 7.70983,-7.465325 14.79411,-11.183699 21.23379,-11.183699 3.56595,0 6.50635,1.20347 8.77993,3.632638 2.2958,2.406941 3.43259,5.502939 3.43259,9.294346 0,5.391801 -3.65487,16.753321 -10.9646,34.068684 l -1.75916,4.18516 -1.04788,2.54348 c -7.33196,17.53446 -10.98365,27.91796 -10.98365,31.12828 0,2.96263 1.00342,5.12189 3.01027,6.50636 2.00366,1.35906 5.28066,2.1148 9.8024,2.24817 l -2.5403,8.7577 -1.96239,0 c -8.62434,0 -14.90842,-1.42257 -18.85225,-4.27724 -3.94383,-2.85149 -5.90304,-7.35101 -5.90304,-13.4795 0,-5.3918 4.3217,-18.18542 12.9905,-38.32687 1.82584,-4.213734 3.23254,-7.487554 4.23278,-9.783356 l 0.66683,-1.517833 c 3.83586,-9.046666 5.75062,-14.619463 5.75062,-16.71204 0,-0.958966 -0.31119,-1.759163 -0.91451,-2.448221 -0.60015,-0.670005 -1.33684,-1.003421 -2.16244,-1.003421 -3.34367,0 -9.5579,5.483887 -18.62679,16.423081 -9.0689,10.94237 -17.24551,23.75504 -24.51078,38.41578 -2.31803,4.52492 -4.52492,9.18004 -6.63973,13.92723 -2.09575,4.76943 -4.10259,9.62459 -5.96972,14.52738 -0.73669,1.95921 -1.64802,3.21031 -2.76258,3.74378 -1.11456,0.51123 -2.91818,0.78114 -5.3918,0.78114 -3.74378,0 -6.50636,-0.31436 -8.28775,-0.95896 -1.78457,-0.62238 -2.67368,-1.58134 -2.67368,-2.89595 0,-0.73669 1.60357,-4.68052 4.83611,-11.81243 2.51808,-5.70299 4.61383,-10.45018 6.26186,-14.23524 6.08403,-14.01614 10.85028,-25.6698 14.26064,-34.938739 3.41036,-9.268943 5.12507,-15.149753 5.12507,-17.626551 0,-1.359064 -0.4001,-2.473624 -1.18124,-3.365906 -0.78115,-0.892283 -1.75916,-1.336837 -2.94041,-1.336837 -4.16927,0 -9.96117,4.855161 -17.35981,14.594061 -7.39865,9.716672 -14.57184,22.170522 -21.52593,37.304402 -2.62921,5.70298 -5.2362,12.07915 -7.84319,19.07452 -2.60699,7.0176 -4.12165,10.96142 -4.49952,11.83148 -0.86688,2.00684 -1.80362,3.23254 -2.80704,3.67709 -1.00342,0.46678 -3.00709,0.69224 -6.01735,0.69224 -3.07377,0 -5.48071,-0.33342 -7.17319,-0.9812 -1.69565,-0.64777 -2.54031,-1.55911 -2.54031,-2.74035 0,-1.22888 1.60357,-5.68394 4.83611,-13.39377 3.20714,-7.70983 5.85858,-14.34955 7.95116,-19.91918 3.43259,-8.9133 6.17295,-17.33441 8.20202,-25.269693 2.02907,-7.909879 3.02931,-13.701778 3.02931,-17.356643 0,-3.010263 -0.73351,-5.328293 -2.18466,-6.954089 -1.4702,-1.625796 -3.54055,-2.44822 -6.23645,-2.44822 -4.52175,0 -8.42112,2.295801 -11.67589,6.88423 -3.27699,4.591604 -4.90279,10.072315 -4.90279,16.423081 0,2.699075 0.44773,5.169523 1.33684,7.42087 0.8764,2.219594 2.07987,3.893024 3.61993,4.985354 m 303.75397,53.04159 c -5.26479,0.84466 -9.65952,0.30484 -12.59992,-1.35588 -2.6197,1.1082 -5.3664,1.65437 -8.25918,1.65437 -3.09917,0 -5.76967,-0.40327 -8.06547,-1.20347 -2.27357,-0.8256 -4.23278,-2.0513 -5.83953,-3.69932 -2.87372,1.42575 -5.83635,2.54031 -8.91012,3.29922 -3.07695,0.75574 -6.41745,1.2003 -10.07232,1.33366 l 2.60699,-8.82121 c 2.38154,-0.13337 4.52175,-0.4255 6.41745,-0.91451 1.89253,-0.46361 3.61041,-1.13361 5.12507,-2.00367 -0.51441,-1.45115 -0.91451,-2.96581 -1.15902,-4.54715 -0.26673,-1.58451 -0.40009,-3.27382 -0.40009,-5.05838 0,-4.83611 0.98119,-9.85004 2.9658,-15.01956 1.98462,-5.16635 4.69957,-9.78018 8.13216,-13.76846 3.00709,-3.56596 6.59527,-6.46191 10.7836,-8.687851 4.1661,-2.206892 8.06547,-3.321451 11.67588,-3.321451 0.95897,0 1.71789,0.200049 2.24818,0.622375 0.55886,0.403274 0.82559,0.958966 0.82559,1.651199 0,0.958966 -1.04787,2.473628 -3.16585,4.547148 -2.11798,2.07035 -3.74378,3.78506 -4.88057,5.19175 -4.47729,5.61725 -7.90987,11.29801 -10.31681,17.06769 -2.38472,5.77284 -3.58819,11.18369 -3.58819,16.21985 0,2.40694 0.53347,4.28042 1.60357,5.61725 1.0701,1.35907 2.54031,2.02907 4.41378,2.02907 4.48047,0 8.84662,-3.21031 13.12386,-9.62458 4.27724,-6.41745 6.48413,-13.68273 6.66195,-21.76725 -2.18466,-0.35882 -3.83268,-1.15902 -4.96947,-2.43235 -1.13361,-1.27015 -1.69248,-2.96263 -1.69248,-5.08061 0,-3.09917 0.86688,-5.66171 2.60699,-7.6876 1.73693,-2.02907 3.94383,-3.029316 6.59527,-3.029316 2.92135,0 5.16952,1.181242 6.7985,3.518326 1.60356,2.36248 2.40694,5.6363 2.40694,9.87226 0,5.25844 -0.84783,10.63119 -2.51808,16.08649 -1.67025,5.46166 -4.03274,10.47242 -7.08428,15.06402 -1.4575,2.20372 -2.97216,4.1661 -4.53445,5.87128 1.52418,0.0254 3.14998,-0.12701 4.84246,-0.38739 l 0.006,-0.0254 c 5.3918,-0.91451 10.33905,-4.58842 14.81634,-11.00905 4.48046,-6.41745 9.64999,-17.57892 15.5308,-33.51299 -1.00342,-1.00025 -1.74011,-2.11798 -2.22912,-3.32145 -0.46678,-1.225699 -0.71446,-2.603815 -0.71446,-4.185156 0,-3.118226 0.87005,-5.728391 2.58476,-7.79874 1.7147,-2.07035 3.87714,-3.099174 6.48413,-3.099174 2.40694,0 4.29947,0.644602 5.68394,1.959211 1.40351,1.292381 2.09575,3.054718 2.09575,5.217154 0,1.044701 -0.11432,2.02907 -0.33342,2.918177 -0.20005,0.889108 -0.55886,1.784566 -1.02565,2.699076 2.2069,1.400344 5.08062,3.073772 8.60212,5.032982 6.39522,3.43259 9.60236,6.84613 9.60236,10.25331 0,2.87372 -1.74011,7.93211 -5.21716,15.19421 -3.4961,7.26528 -5.23621,12.21252 -5.23621,14.81951 0,1.58134 0.60333,2.67367 1.8068,3.29605 1.18124,0.62237 4.29947,1.15901 9.29117,1.60357 l -2.54031,8.7577 -1.96239,0 c -7.82096,0 -13.45727,-0.91133 -16.91209,-2.71495 -3.43258,-1.80362 -5.14729,-4.72497 -5.14729,-8.77993 0,-3.61041 1.64802,-8.97999 4.92184,-16.08649 3.27382,-7.10651 4.92502,-11.67906 4.92502,-13.68273 0,-0.95896 -0.55569,-1.93698 -1.69248,-2.96581 -1.13678,-1.02247 -3.05154,-2.31485 -5.74744,-3.89937 -5.8173,16.84541 -11.83465,28.96585 -18.05205,36.33909 -6.00783,7.15413 -13.10798,11.08208 -21.31635,11.73621 l -0.003,0.019 z M 463.43519,137.22943 c 4.52492,-2.94358 8.33538,-6.93504 11.43138,-11.96802 3.09918,-5.03616 4.63606,-9.40548 4.63606,-13.14926 0,-1.8703 -0.46678,-3.29922 -1.38129,-4.28042 -0.91451,-0.98119 -2.22912,-1.4702 -3.96923,-1.4702 -3.63264,0 -6.81755,2.11798 -9.60236,6.37299 -2.78481,4.23596 -4.18833,9.16098 -4.18833,14.77189 0,2.1402 0.24451,3.96605 0.71129,5.52516 0.49218,1.54324 1.27333,2.94676 2.36248,4.19786 z m -6.72546,13.78751 c -4.21056,2.00684 -8.44652,3.54055 -12.70153,4.63288 -4.23278,1.09551 -8.51003,1.71789 -12.8349,1.89571 l 2.6324,-8.82122 c 2.98486,-0.22227 5.76967,-0.62237 8.30997,-1.24792 2.54031,-0.60015 5.01393,-1.42575 7.42087,-2.47362 -1.64802,-2.18467 -2.87372,-4.65829 -3.65486,-7.4431 -0.77797,-2.78481 -1.18125,-6.03641 -1.18125,-9.78018 0,-8.71325 2.96264,-16.28972 8.9133,-22.73257 5.95067,-6.439675 12.94604,-9.646812 21.05597,-9.646812 4.52174,0 8.10993,1.359064 10.73914,4.077192 2.62922,2.71813 3.94383,6.43968 3.94383,11.12019 0,5.1473 -1.8703,10.80265 -5.6363,17.001 -3.76601,6.2174 -8.77994,11.67588 -15.06402,16.42308 1.82584,1.69248 3.83269,2.89595 5.96972,3.63264 2.16243,0.71446 4.81388,1.0701 7.9321,1.0701 l 0.91452,0 -2.54031,8.82122 -1.75916,0 c -4.88057,0 -9.15781,-0.53347 -12.85713,-1.60357 -3.69614,-1.0701 -6.90963,-2.71813 -9.60236,-4.92502 z m 20.65587,6.52859 2.47045,-8.82122 c 4.88056,-0.46678 8.66879,-2.11798 11.38692,-4.92501 2.71813,-2.80704 5.12507,-7.93211 7.21765,-15.37521 l 5.48388,-19.38254 -6.35076,0 c -0.95897,0 -1.60357,-0.11431 -1.96239,-0.35882 -0.33342,-0.24767 -0.51124,-0.67 -0.51124,-1.27015 0,-0.0889 0,-0.20005 0.0222,-0.33341 0.0222,-0.13337 0.11114,-0.37787 0.24768,-0.77797 l 1.04788,-3.11823 c 0.2445,-0.8256 0.68906,-1.40352 1.33683,-1.71471 0.62555,-0.29213 1.8703,-0.44772 3.74378,-0.44772 l 4.83611,0 6.39522,-21.14488 c 0.35882,-1.136787 0.78114,-2.699075 1.24792,-4.699566 1.35907,-5.661708 4.05497,-8.490975 8.10993,-8.490975 2.87372,0 5.10284,0.355643 6.72864,1.070105 1.60357,0.733513 2.40694,1.736934 2.40694,3.051543 0,0.866879 -0.49218,2.543481 -1.49561,5.013929 -0.53346,1.314609 -0.91451,2.362485 -1.18124,3.140454 l -7.50978,22.05939 10.9646,0 c 0.82242,0 1.44797,0.11113 1.89253,0.35564 0.42232,0.2445 0.64778,0.62237 0.64778,1.13361 0,0.22228 0,0.4255 -0.0222,0.60015 -0.0222,0.15877 -0.0667,0.33341 -0.11114,0.51123 l -1.11456,3.14363 c -0.2445,0.82243 -0.73351,1.40035 -1.42575,1.75917 -0.68906,0.33341 -1.91793,0.51758 -3.65169,0.51758 l -9.60553,0 -6.39522,21.0782 c -0.73352,2.36248 -1.29238,4.39155 -1.6258,6.10626 -0.35564,1.7147 -0.53346,3.11822 -0.53346,4.21055 0,2.47045 1.18124,4.41379 3.54372,5.81413 2.33709,1.38447 5.83636,2.20689 10.49465,2.47362 l -2.54031,8.82122 -1.55911,0 c -5.7919,0 -10.65024,-0.68906 -14.57184,-2.0513 -3.92159,-1.38129 -6.75086,-3.36273 -8.4878,-5.99512 -2.78481,2.40694 -5.85858,4.29947 -9.22448,5.68393 -3.37226,1.40352 -6.82708,2.18467 -10.3454,2.36249 z m 72.97348,-20.3161 c 4.52492,-2.94358 8.33538,-6.93504 11.43137,-11.96802 3.096,-5.03616 4.63289,-9.40548 4.63289,-13.14926 0,-1.8703 -0.46678,-3.29922 -1.38129,-4.28042 -0.91451,-0.98119 -2.22912,-1.4702 -3.96606,-1.4702 -3.63263,0 -6.81754,2.11798 -9.60235,6.37299 -2.78482,4.23596 -4.19151,9.16098 -4.19151,14.77189 0,2.1402 0.2445,3.96605 0.71446,5.52516 0.49219,1.54324 1.27015,2.94676 2.36249,4.19786 z m -6.72864,13.78751 c -4.21373,2.00684 -8.44652,3.54055 -12.70153,4.63288 -4.23279,1.09551 -8.5132,1.71789 -12.8349,1.89571 l 2.62922,-8.82122 c 2.98486,-0.22227 5.76967,-0.62237 8.30997,-1.24792 2.54031,-0.60015 5.01393,-1.42575 7.42087,-2.47362 -1.6512,-2.18467 -2.87372,-4.65829 -3.65486,-7.4431 -0.78115,-2.78481 -1.18124,-6.03641 -1.18124,-9.78018 0,-8.71325 2.9658,-16.28972 8.9133,-22.73257 5.95066,-6.439675 12.94603,-9.646812 21.05596,-9.646812 4.52175,0 8.10993,1.359064 10.73915,4.077192 2.62921,2.71813 3.94382,6.43968 3.94382,11.12019 0,5.1473 -1.8703,10.80265 -5.6363,17.001 -3.76601,6.2174 -8.77994,11.67588 -15.06085,16.42308 1.82585,1.69248 3.83269,2.89595 5.96972,3.63264 2.16244,0.71446 4.81389,1.0701 7.93211,1.0701 l 0.91451,0 -2.5403,8.82122 -1.76234,0 c -4.87739,0 -9.15781,-0.53347 -12.85713,-1.60357 -3.69297,-1.0701 -6.90328,-2.71813 -9.59918,-4.92502 z"
       style="fill:#333333"
       inkscape:connector-curvature="0" /></g></svg>